<?xml version="1.0" encoding="utf-8" standalone="no"?>
<!DOCTYPE svg PUBLIC "-//W3C//DTD SVG 1.1//EN"
  "http://www.w3.org/Graphics/SVG/1.1/DTD/svg11.dtd">
<svg xmlns:xlink="http://www.w3.org/1999/xlink" width="720pt" height="360pt" viewBox="0 0 720 360" xmlns="http://www.w3.org/2000/svg" version="1.1">
 <metadata>
  <rdf:RDF xmlns:dc="http://purl.org/dc/elements/1.1/" xmlns:cc="http://creativecommons.org/ns#" xmlns:rdf="http://www.w3.org/1999/02/22-rdf-syntax-ns#">
   <cc:Work>
    <dc:type rdf:resource="http://purl.org/dc/dcmitype/StillImage"/>
    <dc:date>2024-06-07T17:37:05.380400</dc:date>
    <dc:format>image/svg+xml</dc:format>
    <dc:creator>
     <cc:Agent>
      <dc:title>Matplotlib v3.5.3, https://matplotlib.org/</dc:title>
     </cc:Agent>
    </dc:creator>
   </cc:Work>
  </rdf:RDF>
 </metadata>
 <defs>
  <style type="text/css">*{stroke-linejoin: round; stroke-linecap: butt}</style>
 </defs>
 <g id="figure_1">
  <g id="patch_1">
   <path d="M 0 360 
L 720 360 
L 720 0 
L 0 0 
L 0 360 
z
" style="fill: none"/>
  </g>
  <g id="axes_1">
   <g id="patch_2">
    <path d="M 30.55 332.2 
L 709.2 332.2 
L 709.2 10.8 
L 30.55 10.8 
z
" style="fill: #ffffff"/>
   </g>
   <g id="matplotlib.axis_1">
    <g id="xtick_1">
     <g id="line2d_1">
      <defs>
       <path id="m455b9e7ee2" d="M 0 0 
L 0 3.5 
" style="stroke: #000000; stroke-width: 0.8"/>
      </defs>
      <g>
       <use xlink:href="#m455b9e7ee2" x="61.397727" y="332.2" style="stroke: #000000; stroke-width: 0.8"/>
      </g>
     </g>
     <g id="text_1">
      <!-- 0 -->
      <g transform="translate(58.216477 346.798438)scale(0.1 -0.1)">
       <defs>
        <path id="DejaVuSans-30" d="M 2034 4250 
Q 1547 4250 1301 3770 
Q 1056 3291 1056 2328 
Q 1056 1369 1301 889 
Q 1547 409 2034 409 
Q 2525 409 2770 889 
Q 3016 1369 3016 2328 
Q 3016 3291 2770 3770 
Q 2525 4250 2034 4250 
z
M 2034 4750 
Q 2819 4750 3233 4129 
Q 3647 3509 3647 2328 
Q 3647 1150 3233 529 
Q 2819 -91 2034 -91 
Q 1250 -91 836 529 
Q 422 1150 422 2328 
Q 422 3509 836 4129 
Q 1250 4750 2034 4750 
z
" transform="scale(0.015625)"/>
       </defs>
       <use xlink:href="#DejaVuSans-30"/>
      </g>
     </g>
    </g>
    <g id="xtick_2">
     <g id="line2d_2">
      <g>
       <use xlink:href="#m455b9e7ee2" x="184.912151" y="332.2" style="stroke: #000000; stroke-width: 0.8"/>
      </g>
     </g>
     <g id="text_2">
      <!-- 200 -->
      <g transform="translate(175.368401 346.798438)scale(0.1 -0.1)">
       <defs>
        <path id="DejaVuSans-32" d="M 1228 531 
L 3431 531 
L 3431 0 
L 469 0 
L 469 531 
Q 828 903 1448 1529 
Q 2069 2156 2228 2338 
Q 2531 2678 2651 2914 
Q 2772 3150 2772 3378 
Q 2772 3750 2511 3984 
Q 2250 4219 1831 4219 
Q 1534 4219 1204 4116 
Q 875 4013 500 3803 
L 500 4441 
Q 881 4594 1212 4672 
Q 1544 4750 1819 4750 
Q 2544 4750 2975 4387 
Q 3406 4025 3406 3419 
Q 3406 3131 3298 2873 
Q 3191 2616 2906 2266 
Q 2828 2175 2409 1742 
Q 1991 1309 1228 531 
z
" transform="scale(0.015625)"/>
       </defs>
       <use xlink:href="#DejaVuSans-32"/>
       <use xlink:href="#DejaVuSans-30" x="63.623047"/>
       <use xlink:href="#DejaVuSans-30" x="127.246094"/>
      </g>
     </g>
    </g>
    <g id="xtick_3">
     <g id="line2d_3">
      <g>
       <use xlink:href="#m455b9e7ee2" x="308.426574" y="332.2" style="stroke: #000000; stroke-width: 0.8"/>
      </g>
     </g>
     <g id="text_3">
      <!-- 400 -->
      <g transform="translate(298.882824 346.798438)scale(0.1 -0.1)">
       <defs>
        <path id="DejaVuSans-34" d="M 2419 4116 
L 825 1625 
L 2419 1625 
L 2419 4116 
z
M 2253 4666 
L 3047 4666 
L 3047 1625 
L 3713 1625 
L 3713 1100 
L 3047 1100 
L 3047 0 
L 2419 0 
L 2419 1100 
L 313 1100 
L 313 1709 
L 2253 4666 
z
" transform="scale(0.015625)"/>
       </defs>
       <use xlink:href="#DejaVuSans-34"/>
       <use xlink:href="#DejaVuSans-30" x="63.623047"/>
       <use xlink:href="#DejaVuSans-30" x="127.246094"/>
      </g>
     </g>
    </g>
    <g id="xtick_4">
     <g id="line2d_4">
      <g>
       <use xlink:href="#m455b9e7ee2" x="431.940998" y="332.2" style="stroke: #000000; stroke-width: 0.8"/>
      </g>
     </g>
     <g id="text_4">
      <!-- 600 -->
      <g transform="translate(422.397248 346.798438)scale(0.1 -0.1)">
       <defs>
        <path id="DejaVuSans-36" d="M 2113 2584 
Q 1688 2584 1439 2293 
Q 1191 2003 1191 1497 
Q 1191 994 1439 701 
Q 1688 409 2113 409 
Q 2538 409 2786 701 
Q 3034 994 3034 1497 
Q 3034 2003 2786 2293 
Q 2538 2584 2113 2584 
z
M 3366 4563 
L 3366 3988 
Q 3128 4100 2886 4159 
Q 2644 4219 2406 4219 
Q 1781 4219 1451 3797 
Q 1122 3375 1075 2522 
Q 1259 2794 1537 2939 
Q 1816 3084 2150 3084 
Q 2853 3084 3261 2657 
Q 3669 2231 3669 1497 
Q 3669 778 3244 343 
Q 2819 -91 2113 -91 
Q 1303 -91 875 529 
Q 447 1150 447 2328 
Q 447 3434 972 4092 
Q 1497 4750 2381 4750 
Q 2619 4750 2861 4703 
Q 3103 4656 3366 4563 
z
" transform="scale(0.015625)"/>
       </defs>
       <use xlink:href="#DejaVuSans-36"/>
       <use xlink:href="#DejaVuSans-30" x="63.623047"/>
       <use xlink:href="#DejaVuSans-30" x="127.246094"/>
      </g>
     </g>
    </g>
    <g id="xtick_5">
     <g id="line2d_5">
      <g>
       <use xlink:href="#m455b9e7ee2" x="555.455421" y="332.2" style="stroke: #000000; stroke-width: 0.8"/>
      </g>
     </g>
     <g id="text_5">
      <!-- 800 -->
      <g transform="translate(545.911671 346.798438)scale(0.1 -0.1)">
       <defs>
        <path id="DejaVuSans-38" d="M 2034 2216 
Q 1584 2216 1326 1975 
Q 1069 1734 1069 1313 
Q 1069 891 1326 650 
Q 1584 409 2034 409 
Q 2484 409 2743 651 
Q 3003 894 3003 1313 
Q 3003 1734 2745 1975 
Q 2488 2216 2034 2216 
z
M 1403 2484 
Q 997 2584 770 2862 
Q 544 3141 544 3541 
Q 544 4100 942 4425 
Q 1341 4750 2034 4750 
Q 2731 4750 3128 4425 
Q 3525 4100 3525 3541 
Q 3525 3141 3298 2862 
Q 3072 2584 2669 2484 
Q 3125 2378 3379 2068 
Q 3634 1759 3634 1313 
Q 3634 634 3220 271 
Q 2806 -91 2034 -91 
Q 1263 -91 848 271 
Q 434 634 434 1313 
Q 434 1759 690 2068 
Q 947 2378 1403 2484 
z
M 1172 3481 
Q 1172 3119 1398 2916 
Q 1625 2713 2034 2713 
Q 2441 2713 2670 2916 
Q 2900 3119 2900 3481 
Q 2900 3844 2670 4047 
Q 2441 4250 2034 4250 
Q 1625 4250 1398 4047 
Q 1172 3844 1172 3481 
z
" transform="scale(0.015625)"/>
       </defs>
       <use xlink:href="#DejaVuSans-38"/>
       <use xlink:href="#DejaVuSans-30" x="63.623047"/>
       <use xlink:href="#DejaVuSans-30" x="127.246094"/>
      </g>
     </g>
    </g>
    <g id="xtick_6">
     <g id="line2d_6">
      <g>
       <use xlink:href="#m455b9e7ee2" x="678.969845" y="332.2" style="stroke: #000000; stroke-width: 0.8"/>
      </g>
     </g>
     <g id="text_6">
      <!-- 1000 -->
      <g transform="translate(666.244845 346.798438)scale(0.1 -0.1)">
       <defs>
        <path id="DejaVuSans-31" d="M 794 531 
L 1825 531 
L 1825 4091 
L 703 3866 
L 703 4441 
L 1819 4666 
L 2450 4666 
L 2450 531 
L 3481 531 
L 3481 0 
L 794 0 
L 794 531 
z
" transform="scale(0.015625)"/>
       </defs>
       <use xlink:href="#DejaVuSans-31"/>
       <use xlink:href="#DejaVuSans-30" x="63.623047"/>
       <use xlink:href="#DejaVuSans-30" x="127.246094"/>
       <use xlink:href="#DejaVuSans-30" x="190.869141"/>
      </g>
     </g>
    </g>
   </g>
   <g id="matplotlib.axis_2">
    <g id="ytick_1">
     <g id="line2d_7">
      <defs>
       <path id="m617d6b421d" d="M 0 0 
L -3.5 0 
" style="stroke: #000000; stroke-width: 0.8"/>
      </defs>
      <g>
       <use xlink:href="#m617d6b421d" x="30.55" y="332.2" style="stroke: #000000; stroke-width: 0.8"/>
      </g>
     </g>
     <g id="text_7">
      <!-- 0 -->
      <g transform="translate(17.1875 335.999219)scale(0.1 -0.1)">
       <use xlink:href="#DejaVuSans-30"/>
      </g>
     </g>
    </g>
    <g id="ytick_2">
     <g id="line2d_8">
      <g>
       <use xlink:href="#m617d6b421d" x="30.55" y="289.346667" style="stroke: #000000; stroke-width: 0.8"/>
      </g>
     </g>
     <g id="text_8">
      <!-- 2 -->
      <g transform="translate(17.1875 293.145885)scale(0.1 -0.1)">
       <use xlink:href="#DejaVuSans-32"/>
      </g>
     </g>
    </g>
    <g id="ytick_3">
     <g id="line2d_9">
      <g>
       <use xlink:href="#m617d6b421d" x="30.55" y="246.493333" style="stroke: #000000; stroke-width: 0.8"/>
      </g>
     </g>
     <g id="text_9">
      <!-- 4 -->
      <g transform="translate(17.1875 250.292552)scale(0.1 -0.1)">
       <use xlink:href="#DejaVuSans-34"/>
      </g>
     </g>
    </g>
    <g id="ytick_4">
     <g id="line2d_10">
      <g>
       <use xlink:href="#m617d6b421d" x="30.55" y="203.64" style="stroke: #000000; stroke-width: 0.8"/>
      </g>
     </g>
     <g id="text_10">
      <!-- 6 -->
      <g transform="translate(17.1875 207.439219)scale(0.1 -0.1)">
       <use xlink:href="#DejaVuSans-36"/>
      </g>
     </g>
    </g>
    <g id="ytick_5">
     <g id="line2d_11">
      <g>
       <use xlink:href="#m617d6b421d" x="30.55" y="160.786667" style="stroke: #000000; stroke-width: 0.8"/>
      </g>
     </g>
     <g id="text_11">
      <!-- 8 -->
      <g transform="translate(17.1875 164.585885)scale(0.1 -0.1)">
       <use xlink:href="#DejaVuSans-38"/>
      </g>
     </g>
    </g>
    <g id="ytick_6">
     <g id="line2d_12">
      <g>
       <use xlink:href="#m617d6b421d" x="30.55" y="117.933333" style="stroke: #000000; stroke-width: 0.8"/>
      </g>
     </g>
     <g id="text_12">
      <!-- 10 -->
      <g transform="translate(10.825 121.732552)scale(0.1 -0.1)">
       <use xlink:href="#DejaVuSans-31"/>
       <use xlink:href="#DejaVuSans-30" x="63.623047"/>
      </g>
     </g>
    </g>
    <g id="ytick_7">
     <g id="line2d_13">
      <g>
       <use xlink:href="#m617d6b421d" x="30.55" y="75.08" style="stroke: #000000; stroke-width: 0.8"/>
      </g>
     </g>
     <g id="text_13">
      <!-- 12 -->
      <g transform="translate(10.825 78.879219)scale(0.1 -0.1)">
       <use xlink:href="#DejaVuSans-31"/>
       <use xlink:href="#DejaVuSans-32" x="63.623047"/>
      </g>
     </g>
    </g>
    <g id="ytick_8">
     <g id="line2d_14">
      <g>
       <use xlink:href="#m617d6b421d" x="30.55" y="32.226667" style="stroke: #000000; stroke-width: 0.8"/>
      </g>
     </g>
     <g id="text_14">
      <!-- 14 -->
      <g transform="translate(10.825 36.025885)scale(0.1 -0.1)">
       <use xlink:href="#DejaVuSans-31"/>
       <use xlink:href="#DejaVuSans-34" x="63.623047"/>
      </g>
     </g>
    </g>
   </g>
   <g id="line2d_15">
    <path d="M 61.397727 85.568354 
L 62.015299 85.441929 
L 62.632872 85.501923 
L 63.250444 85.902615 
L 63.868016 86.086869 
L 64.485588 88.047415 
L 65.10316 88.443815 
L 65.720732 100.275627 
L 66.338304 101.479786 
L 66.955876 106.287941 
L 67.573448 110.172599 
L 68.191021 115.295705 
L 68.808593 115.499269 
L 69.426165 116.999129 
L 70.043737 131.014321 
L 70.661309 134.55399 
L 71.278881 135.616766 
L 71.896453 139.672825 
L 73.131598 141.716926 
L 73.74917 142.505436 
L 74.366742 142.771119 
L 74.984314 144.761662 
L 75.601886 143.694616 
L 76.219458 144.206714 
L 76.83703 145.170916 
L 77.454602 144.911648 
L 78.689747 147.401437 
L 79.307319 149.5398 
L 79.924891 149.265554 
L 80.542463 146.700773 
L 81.160035 148.369909 
L 81.777607 149.089842 
L 82.395179 149.346964 
L 83.630324 155.45356 
L 84.247896 153.07949 
L 84.865468 152.880217 
L 85.48304 156.021382 
L 86.100612 154.667217 
L 86.718184 159.046829 
L 87.335756 158.041902 
L 87.953328 160.615245 
L 88.5709 160.128874 
L 89.188473 161.937278 
L 89.806045 162.031561 
L 90.423617 166.173331 
L 91.041189 173.829074 
L 91.658761 169.674452 
L 92.276333 173.481971 
L 92.893905 171.255731 
L 93.511477 176.213862 
L 94.12905 173.739083 
L 94.746622 175.877466 
L 95.364194 179.813547 
L 95.981766 180.03638 
L 96.599338 180.833452 
L 97.21691 184.934517 
L 97.834482 178.97148 
L 98.452054 185.234489 
L 99.069626 186.157986 
L 99.687199 190.563304 
L 100.304771 187.070755 
L 100.922343 190.145489 
L 101.539915 190.37904 
L 102.157487 189.476978 
L 102.775059 194.50153 
L 103.392631 194.514383 
L 104.010203 198.542601 
L 104.627776 193.98086 
L 105.245348 194.510102 
L 105.86292 196.873455 
L 106.480492 199.768205 
L 107.098064 203.697849 
L 107.715636 203.007913 
L 108.333208 204.640625 
L 108.95078 204.559206 
L 109.568352 209.80231 
L 110.185925 205.471975 
L 110.803497 209.043808 
L 111.421069 209.885875 
L 112.038641 212.347802 
L 112.656213 206.770437 
L 113.273785 213.119157 
L 113.891357 218.197277 
L 114.508929 216.862391 
L 115.126502 219.894274 
L 115.744074 217.871588 
L 116.361646 217.115232 
L 116.979218 225.74803 
L 117.59679 225.043096 
L 118.214362 222.591887 
L 118.831934 224.734552 
L 119.449506 229.973375 
L 120.067078 224.35316 
L 120.684651 227.967833 
L 121.302223 227.226475 
L 121.919795 231.048994 
L 122.537367 227.32932 
L 123.154939 231.816068 
L 124.390083 233.78303 
L 125.007655 235.362185 
L 125.625228 235.61287 
L 126.2428 235.694289 
L 126.860372 236.583498 
L 127.477944 233.581622 
L 128.095516 237.941954 
L 128.713088 239.358249 
L 129.33066 238.848297 
L 129.948232 236.390662 
L 130.565804 238.608319 
L 131.183377 238.668314 
L 131.800949 238.181932 
L 132.418521 244.967757 
L 133.036093 236.806342 
L 133.653665 247.298977 
L 134.271237 249.76947 
L 134.888809 247.178988 
L 135.506381 248.535294 
L 136.123953 253.356297 
L 136.741526 252.835627 
L 137.359098 257.800184 
L 137.97667 258.128013 
L 138.594242 256.655999 
L 139.211814 259.379328 
L 139.829386 261.547709 
L 140.446958 261.905535 
L 141.06453 263.255415 
L 141.682103 262.788312 
L 142.917247 259.940708 
L 143.534819 265.545925 
L 144.152391 266.049451 
L 144.769963 265.293089 
L 145.387535 265.558783 
L 146.005107 264.193905 
L 146.622679 263.36255 
L 147.240252 268.472808 
L 147.857824 267.373619 
L 149.092968 269.702698 
L 149.71054 269.788404 
L 150.328112 273.788765 
L 150.945684 272.571727 
L 151.563256 272.848134 
L 152.798401 271.731806 
L 153.415973 275.262919 
L 154.033545 272.616723 
L 154.651117 272.04249 
L 155.268689 272.743144 
L 155.886261 275.869294 
L 156.503833 274.973659 
L 157.121405 273.529502 
L 157.738978 274.148731 
L 158.35655 277.349875 
L 158.974122 277.12061 
L 159.591694 276.477811 
L 160.209266 278.539056 
L 160.826838 278.459777 
L 161.44441 277.947679 
L 162.061982 278.772607 
L 162.679555 278.34836 
L 163.297127 281.603072 
L 163.914699 279.953215 
L 164.532271 281.69949 
L 165.149843 281.030979 
L 165.767415 280.062492 
L 166.384987 282.76225 
L 167.002559 283.516471 
L 167.620131 279.329701 
L 168.237704 281.648068 
L 168.855276 281.684491 
L 169.472848 281.8859 
L 170.09042 281.363089 
L 170.707992 283.525043 
L 171.325564 281.795908 
L 171.943136 282.233013 
L 172.560708 284.868491 
L 173.178281 286.929741 
L 173.795853 284.784931 
L 174.413425 284.369251 
L 175.030997 286.837604 
L 175.648569 286.8826 
L 176.266141 284.926345 
L 176.883713 286.666193 
L 177.501285 286.049105 
L 178.118857 285.817694 
L 178.73643 288.346041 
L 179.354002 287.581108 
L 179.971574 289.389519 
L 180.589146 286.394072 
L 181.206718 290.08803 
L 181.82429 289.860908 
L 182.441862 289.884476 
L 183.059434 289.02741 
L 183.677007 289.533079 
L 184.294579 289.417374 
L 184.912151 292.245696 
L 185.529723 294.047678 
L 186.147295 290.437284 
L 186.764867 295.044018 
L 187.382439 294.111956 
L 188.000011 291.242927 
L 188.617583 293.514153 
L 189.852728 295.121154 
L 190.4703 293.946972 
L 191.087872 297.998755 
L 191.705444 295.894657 
L 192.323016 296.773151 
L 192.940588 295.333277 
L 193.55816 296.848144 
L 194.175733 297.692354 
L 194.793305 298.980096 
L 195.410877 296.117493 
L 196.028449 296.346758 
L 196.646021 300.696373 
L 197.263593 296.666015 
L 197.881165 298.324441 
L 198.498737 300.640662 
L 199.116309 298.952241 
L 199.733882 299.500763 
L 200.351454 300.494962 
L 200.969026 298.202309 
L 201.586598 296.796719 
L 202.20417 300.441394 
L 202.821742 299.164365 
L 203.439314 298.40586 
L 204.056886 299.232931 
L 204.674459 298.892247 
L 205.292031 301.551296 
L 205.909603 301.619862 
L 206.527175 299.929296 
L 207.144747 299.095801 
L 207.762319 301.01563 
L 208.379891 299.841447 
L 208.997463 302.114819 
L 209.615035 302.266948 
L 210.85018 301.133475 
L 211.467752 304.240342 
L 212.085324 302.757618 
L 212.702896 301.660572 
L 213.320468 303.511837 
L 213.93804 303.666109 
L 214.555612 303.175438 
L 215.173185 303.291141 
L 215.790757 303.096159 
L 216.408329 303.882518 
L 217.025901 306.151601 
L 217.643473 302.706193 
L 218.261045 306.987241 
L 218.878617 305.264538 
L 219.496189 305.954476 
L 220.731334 302.59049 
L 221.348906 305.73378 
L 221.966478 304.315337 
L 223.201622 307.312927 
L 223.819194 303.931797 
L 224.436766 304.263912 
L 225.054338 302.770474 
L 225.671911 303.908229 
L 226.289483 305.502372 
L 226.907055 305.247396 
L 227.524627 306.044467 
L 228.142199 307.510052 
L 228.759771 305.114552 
L 229.377343 308.34355 
L 229.994915 307.300072 
L 230.612487 309.25204 
L 231.23006 306.685126 
L 231.847632 310.087681 
L 232.465204 306.063752 
L 233.082776 307.287213 
L 233.700348 309.080627 
L 234.31792 309.089196 
L 234.935492 310.726195 
L 235.553064 307.621471 
L 236.170637 310.546211 
L 236.788209 308.041432 
L 237.405781 308.780652 
L 238.023353 308.394975 
L 238.640925 307.334352 
L 239.258497 310.115535 
L 239.876069 310.672629 
L 240.493641 309.172761 
L 241.111213 309.577726 
L 241.728786 308.172136 
L 242.346358 308.373547 
L 242.96393 311.593974 
L 243.581502 309.941979 
L 244.199074 309.303463 
L 244.816646 312.243203 
L 245.434218 308.176422 
L 246.05179 311.319713 
L 246.669363 309.387028 
L 247.286935 311.72682 
L 247.904507 310.042683 
L 248.522079 310.295519 
L 249.139651 309.464164 
L 249.757223 312.806724 
L 250.374795 310.689768 
L 250.992367 313.059559 
L 251.609939 310.364085 
L 252.845084 312.813152 
L 253.462656 312.984566 
L 254.080228 313.331678 
L 254.6978 311.131159 
L 255.315372 311.756817 
L 255.932944 310.567636 
L 256.550516 313.764496 
L 257.785661 311.878949 
L 258.403233 311.731106 
L 259.020805 312.181065 
L 259.638377 312.011795 
L 260.255949 313.811634 
L 260.873521 311.69468 
L 261.491093 313.5588 
L 262.108665 314.670845 
L 262.726238 312.106072 
L 263.34381 312.247487 
L 263.961382 313.925195 
L 264.578954 314.261595 
L 265.196526 313.226686 
L 265.814098 314.165174 
L 267.049242 315.485058 
L 267.666815 313.048845 
L 268.284387 311.876807 
L 268.901959 313.136695 
L 269.519531 314.070898 
L 270.137103 313.586654 
L 271.372247 315.61576 
L 271.989819 312.311768 
L 272.607391 311.9518 
L 273.224964 314.735124 
L 273.842536 312.260344 
L 274.460108 314.405153 
L 275.07768 315.566478 
L 275.695252 313.732357 
L 276.312824 314.182316 
L 276.930396 315.480772 
L 277.547968 313.798779 
L 278.165541 315.03724 
L 278.783113 314.225169 
L 279.400685 314.083753 
L 280.018257 315.58362 
L 280.635829 314.767264 
L 281.253401 315.44649 
L 281.870973 314.077326 
L 282.488545 316.080718 
L 283.106117 313.790208 
L 283.72369 316.946356 
L 284.341262 316.980638 
L 284.958834 315.660756 
L 285.576406 317.280611 
L 286.193978 314.537999 
L 286.81155 316.087147 
L 287.429122 315.617903 
L 288.664267 316.423546 
L 289.281839 315.802173 
L 290.516983 315.945731 
L 291.134555 314.829401 
L 291.752127 315.804314 
L 292.369699 317.96198 
L 292.987271 318.306949 
L 293.604843 316.408547 
L 294.222416 315.080093 
L 294.839988 317.152052 
L 295.45756 316.667809 
L 296.075132 315.928589 
L 296.692704 316.867077 
L 297.310276 315.967157 
L 297.927848 317.677005 
L 298.54542 317.837705 
L 299.162993 317.156338 
L 299.780565 316.952784 
L 300.398137 316.406404 
L 301.633281 317.349178 
L 302.250853 318.568354 
L 302.868425 316.95707 
L 303.485997 317.038491 
L 304.103569 317.619154 
L 304.721142 316.196422 
L 305.338714 315.765746 
L 305.956286 317.700575 
L 306.573858 317.124198 
L 307.19143 318.04983 
L 307.809002 316.264987 
L 308.426574 319.116877 
L 309.044146 317.745571 
L 310.279291 317.081344 
L 310.896863 319.176872 
L 311.514435 318.868328 
L 312.132007 318.763338 
L 312.749579 317.670578 
L 313.367151 320.111075 
L 313.984723 319.648259 
L 314.602295 318.041259 
L 315.219868 319.254008 
L 315.83744 318.459078 
L 316.455012 318.474077 
L 317.072584 319.755392 
L 317.690156 318.31552 
L 318.307728 318.906896 
L 318.9253 318.054115 
L 319.542872 317.409172 
L 320.160445 317.50345 
L 320.778017 319.579694 
L 321.395589 318.611208 
L 322.013161 319.056883 
L 322.630733 319.937518 
L 323.248305 318.94975 
L 323.865877 320.08322 
L 324.483449 317.557017 
L 325.101021 320.743162 
L 325.718594 319.939661 
L 326.336166 319.406137 
L 326.953738 320.143215 
L 327.57131 319.701825 
L 328.188882 320.280346 
L 328.806454 318.718342 
L 329.424026 317.841991 
L 330.041598 319.566837 
L 330.659171 319.978229 
L 331.894315 318.89404 
L 332.511887 320.098218 
L 333.129459 320.393907 
L 333.747031 319.982514 
L 334.364603 318.831903 
L 334.982175 319.11045 
L 335.599747 319.084737 
L 336.21732 318.075541 
L 336.834892 320.383193 
L 337.452464 320.426047 
L 338.070036 319.669685 
L 338.687608 320.805299 
L 339.30518 320.479614 
L 339.922752 319.254008 
L 340.540324 321.638796 
L 341.157897 319.502558 
L 341.775469 320.520325 
L 342.393041 320.162499 
L 343.010613 320.055365 
L 343.628185 320.42819 
L 344.245757 319.21544 
L 344.863329 320.644598 
L 345.480901 320.573891 
L 346.098473 320.88672 
L 346.716046 319.783246 
L 347.333618 320.111075 
L 347.95119 320.871721 
L 348.568762 319.112591 
L 349.186334 321.955911 
L 349.803906 321.133127 
L 350.421478 320.976712 
L 351.03905 321.01528 
L 351.656623 321.338822 
L 352.274195 320.676738 
L 352.891767 320.481757 
L 353.509339 320.818155 
L 354.744483 319.815386 
L 355.362055 320.012513 
L 355.979627 321.280971 
L 356.597199 321.049563 
L 357.214772 321.835921 
L 357.832344 320.908146 
L 358.449916 320.509611 
L 359.067488 322.737984 
L 359.68506 320.509611 
L 360.302632 321.090274 
L 360.920204 320.175354 
L 362.155349 321.199549 
L 362.772921 320.993853 
L 363.390493 320.623172 
L 364.008065 320.940287 
L 364.625637 321.65808 
L 365.860781 321.538091 
L 366.478353 321.066705 
L 367.095925 320.906003 
L 368.33107 321.385961 
L 368.948642 322.285881 
L 369.566214 320.824583 
L 370.183786 321.478096 
L 370.801358 321.535948 
L 371.41893 321.728788 
L 372.036502 320.601745 
L 372.654075 322.862259 
L 373.271647 321.726646 
L 373.889219 322.772267 
L 374.506791 321.077417 
L 375.124363 321.739501 
L 375.741935 321.021707 
L 376.359507 322.474436 
L 376.977079 321.604513 
L 377.594651 321.713789 
L 378.212224 321.576659 
L 379.447368 321.840207 
L 380.06494 322.988676 
L 380.682512 321.555232 
L 381.300084 323.187944 
L 381.917656 322.065187 
L 382.535228 322.519432 
L 383.152801 321.711647 
L 383.770373 323.631476 
L 384.387945 322.030904 
L 385.005517 322.797979 
L 386.240661 322.727271 
L 386.858233 321.829493 
L 388.093377 322.688703 
L 388.71095 324.111433 
L 389.328522 323.820031 
L 389.946094 322.294452 
L 390.563666 322.103755 
L 391.181238 322.281596 
L 391.79881 322.230172 
L 392.416382 323.134377 
L 393.033954 322.866544 
L 393.651527 322.345876 
L 394.269099 322.789408 
L 394.886671 322.613709 
L 395.504243 323.267222 
L 396.121815 324.113576 
L 396.739387 323.65933 
L 397.356959 322.446582 
L 397.974531 324.111433 
L 398.592103 322.671561 
L 399.209676 323.946448 
L 399.827248 323.766464 
L 400.44482 322.922253 
L 401.062392 323.453635 
L 401.679964 324.434976 
L 402.297536 322.48515 
L 402.915108 323.590765 
L 403.53268 322.836547 
L 404.150253 322.330878 
L 405.385397 324.087864 
L 406.002969 323.0401 
L 406.620541 323.485775 
L 407.238113 322.705844 
L 407.855685 323.100095 
L 408.473257 323.689328 
L 409.090829 323.003675 
L 409.708402 322.506576 
L 410.943546 324.042868 
L 411.561118 324.160715 
L 412.17869 323.39364 
L 412.796262 323.830744 
L 413.413834 324.072865 
L 414.031406 324.173571 
L 414.648979 323.6829 
L 415.266551 323.543626 
L 415.884123 324.379266 
L 416.501695 322.832261 
L 417.119267 324.4864 
L 417.736839 323.567196 
L 418.354411 323.905737 
L 418.971983 323.710755 
L 419.589555 323.976445 
L 420.207128 324.419977 
L 420.8247 323.48149 
L 421.442272 323.946448 
L 422.059844 323.719325 
L 422.677416 324.957787 
L 423.294988 324.117861 
L 423.91256 324.730664 
L 424.530132 324.812085 
L 425.147705 325.12063 
L 425.765277 324.777803 
L 426.382849 324.867794 
L 427.000421 324.218567 
L 427.617993 323.987159 
L 428.235565 324.190712 
L 428.853137 324.060009 
L 429.470709 323.509344 
L 430.088281 323.123664 
L 430.705854 324.734949 
L 431.323426 324.22071 
L 431.940998 325.09706 
L 432.55857 325.384177 
L 433.176142 325.834137 
L 433.793714 325.264188 
L 434.411286 324.923504 
L 435.028858 323.835029 
L 435.646431 325.077776 
L 436.264003 324.092149 
L 436.881575 324.12429 
L 437.499147 324.544252 
L 438.116719 324.469259 
L 438.734291 325.489168 
L 439.351863 325.056349 
L 439.969435 325.435601 
L 440.587007 325.056349 
L 441.20458 324.467116 
L 441.822152 325.6113 
L 442.439724 324.402836 
L 443.057296 325.004926 
L 444.29244 325.527736 
L 444.910012 324.334271 
L 445.527584 325.647726 
L 446.145157 325.154912 
L 446.762729 325.622013 
L 447.380301 324.642815 
L 447.997873 325.187052 
L 448.615445 325.247047 
L 449.233017 326.016264 
L 449.850589 324.61496 
L 451.085733 326.38266 
L 451.703306 325.536307 
L 452.320878 325.22562 
L 452.93845 325.529878 
L 453.556022 325.523451 
L 454.173594 325.019924 
L 454.791166 325.506309 
L 455.408738 324.732806 
L 456.02631 325.767715 
L 456.643883 325.731289 
L 457.261455 325.467741 
L 457.879027 324.974928 
L 458.496599 325.926272 
L 459.114171 325.506309 
L 459.731743 326.284097 
L 460.349315 326.076258 
L 460.966887 326.744771 
L 461.584459 325.431316 
L 462.202032 325.752716 
L 462.819604 325.469884 
L 463.437176 325.971268 
L 464.054748 326.305524 
L 464.67232 325.626298 
L 465.289892 325.737717 
L 465.907464 325.454885 
L 466.525036 326.183392 
L 467.142609 326.532647 
L 467.760181 325.58773 
L 468.377753 326.284097 
L 468.995325 326.470509 
L 469.612897 326.311952 
L 470.230469 326.697632 
L 470.848041 326.459796 
L 471.465613 326.365519 
L 472.700758 326.710488 
L 473.31833 326.854047 
L 473.935902 326.63978 
L 474.553474 326.663349 
L 475.171046 325.934843 
L 475.788618 325.960554 
L 476.40619 327.034031 
L 477.023762 326.149109 
L 477.641335 326.354805 
L 478.258907 325.699149 
L 478.876479 327.166876 
L 479.494051 326.856189 
L 480.111623 325.896275 
L 480.729195 326.35052 
L 481.346767 325.90056 
L 481.964339 327.18616 
L 482.581911 326.564786 
L 483.199484 326.774768 
L 483.817056 326.86476 
L 484.434628 325.853421 
L 485.0522 327.220443 
L 485.669772 326.669777 
L 486.904916 326.528361 
L 487.522488 326.273384 
L 488.140061 326.204819 
L 488.757633 326.926897 
L 489.375205 326.669777 
L 490.610349 326.742628 
L 491.227921 326.558359 
L 491.845493 326.948324 
L 492.463065 326.716916 
L 493.080637 326.333379 
L 493.69821 326.866903 
L 494.315782 326.948324 
L 494.933354 326.279812 
L 495.550926 326.946181 
L 496.168498 327.040459 
L 496.78607 326.723344 
L 497.403642 326.594784 
L 498.021214 326.586213 
L 498.638787 327.104739 
L 499.256359 326.659064 
L 499.873931 326.92904 
L 500.491503 326.869045 
L 501.109075 327.0576 
L 501.726647 326.909756 
L 502.344219 326.504792 
L 502.961791 325.568446 
L 503.579363 327.169019 
L 504.196936 327.139021 
L 504.814508 326.862617 
L 505.43208 327.524701 
L 506.049652 327.400427 
L 506.667224 326.348378 
L 507.284796 326.729772 
L 507.902368 326.691204 
L 508.51994 327.25044 
L 509.137513 326.114826 
L 509.755085 327.177589 
L 510.372657 326.899043 
L 510.990229 327.488276 
L 511.607801 327.578268 
L 512.842945 327.445423 
L 513.460517 327.079027 
L 514.078089 327.593267 
L 514.695662 327.021175 
L 515.313234 327.203301 
L 515.930806 326.376232 
L 516.548378 327.248297 
L 517.16595 327.655404 
L 517.783522 326.770483 
L 518.401094 327.280437 
L 519.018666 327.224728 
L 519.636239 327.693972 
L 520.253811 327.813961 
L 520.871383 327.177589 
L 521.488955 327.751824 
L 522.106527 327.601837 
L 522.724099 327.670403 
L 523.341671 327.289008 
L 523.959243 328.139647 
L 524.576815 327.7004 
L 525.194388 327.837531 
L 525.81196 327.426139 
L 526.429532 327.858957 
L 527.664676 327.591124 
L 528.282248 327.646833 
L 530.134965 327.233299 
L 530.752537 328.253208 
L 531.370109 327.659689 
L 533.222825 327.593267 
L 533.840397 327.190445 
L 534.457969 327.400427 
L 535.075541 328.242495 
L 535.693114 328.051797 
L 536.310686 328.116077 
L 536.928258 328.456761 
L 537.54583 327.674688 
L 538.163402 327.869671 
L 538.780974 328.225353 
L 539.398546 327.807533 
L 541.251263 327.659689 
L 542.486407 328.210355 
L 543.103979 327.824675 
L 543.721551 328.176072 
L 544.339123 327.820389 
L 544.956695 328.405337 
L 545.574267 327.777536 
L 546.19184 326.828335 
L 546.809412 328.302489 
L 548.044556 328.514613 
L 548.662128 327.453993 
L 549.2797 327.884669 
L 549.897272 327.372572 
L 550.514844 327.981089 
L 551.132417 328.094651 
L 551.749989 326.650493 
L 552.367561 327.931808 
L 552.985133 328.420336 
L 553.602705 327.803248 
L 554.220277 328.116077 
L 554.837849 327.993945 
L 555.455421 328.491044 
L 556.072993 328.578893 
L 556.690566 328.276777 
L 557.308138 327.591124 
L 557.92571 327.441137 
L 558.543282 327.670403 
L 559.160854 328.791017 
L 559.778426 327.616836 
L 561.01357 328.435335 
L 561.631143 328.467475 
L 562.248715 328.015372 
L 564.101431 328.011087 
L 564.719003 327.880384 
L 565.336575 328.240352 
L 565.954147 328.1825 
L 567.189292 328.315345 
L 567.806864 327.728255 
L 568.424436 328.619604 
L 569.042008 327.837531 
L 569.65958 328.358199 
L 570.277152 327.430424 
L 570.894724 328.002516 
L 571.512296 327.813961 
L 572.129869 328.336772 
L 572.747441 328.201784 
L 573.365013 328.529612 
L 573.982585 328.068939 
L 574.600157 328.418193 
L 575.835301 328.191071 
L 576.452873 327.535415 
L 577.070445 328.486759 
L 577.688018 327.708971 
L 578.30559 328.709596 
L 579.540734 328.240352 
L 580.158306 328.716024 
L 581.39345 328.583179 
L 582.011022 327.921095 
L 582.628595 328.673171 
L 584.481311 328.274635 
L 585.098883 327.756109 
L 585.716455 327.884669 
L 586.334027 328.332487 
L 586.951599 327.95752 
L 587.569171 328.05394 
L 588.186744 328.816729 
L 588.804316 328.591749 
L 589.421888 328.816729 
L 590.03946 328.373197 
L 590.657032 328.116077 
L 591.274604 329.011712 
L 591.892176 328.334629 
L 592.509748 328.306775 
L 593.127321 328.0218 
L 593.744893 328.058225 
L 594.362465 328.424621 
L 594.980037 329.249548 
L 595.597609 328.578893 
L 596.215181 328.608891 
L 596.832753 328.266064 
L 597.450325 328.808159 
L 598.067897 328.203927 
L 598.68547 328.662457 
L 599.303042 328.251065 
L 599.920614 328.885295 
L 600.538186 328.960288 
L 601.155758 328.563895 
L 601.77333 328.330344 
L 603.008474 328.574608 
L 603.626047 328.566037 
L 604.243619 328.186785 
L 604.861191 328.754592 
L 605.478763 328.705311 
L 606.096335 328.848869 
L 606.713907 328.821015 
L 607.331479 328.945289 
L 607.949051 328.707453 
L 608.566623 329.007427 
L 609.184196 328.662457 
L 609.801768 328.08608 
L 610.41934 327.869671 
L 611.036912 329.073849 
L 611.654484 328.000373 
L 612.272056 328.047512 
L 612.889628 328.390339 
L 613.5072 327.803248 
L 614.124772 328.396767 
L 614.742345 328.208212 
L 615.359917 328.973144 
L 617.212633 328.72888 
L 617.830205 328.353913 
L 619.682922 329.223836 
L 620.300494 328.5039 
L 620.918066 328.900293 
L 621.535638 328.964573 
L 622.15321 328.223211 
L 622.770782 328.143932 
L 623.388354 328.675313 
L 624.005926 328.883152 
L 624.623498 328.405337 
L 625.241071 328.458904 
L 625.858643 328.893865 
L 626.476215 328.133219 
L 627.093787 328.981715 
L 627.711359 328.69674 
L 628.328931 328.911007 
L 628.946503 329.273117 
L 629.564075 328.917435 
L 630.181648 329.088848 
L 630.79922 328.619604 
L 631.416792 328.943147 
L 632.034364 328.908864 
L 632.651936 329.093133 
L 633.269508 329.088848 
L 634.504652 328.458904 
L 635.122224 328.8253 
L 635.739797 329.003141 
L 636.357369 328.776019 
L 636.974941 328.951717 
L 637.592513 328.533897 
L 638.210085 329.022425 
L 639.445229 328.377483 
L 640.680374 328.883152 
L 641.297946 329.195981 
L 641.915518 328.368912 
L 642.53309 328.596035 
L 643.150662 329.020283 
L 643.768234 329.264547 
L 644.385806 328.351771 
L 645.003378 328.842441 
L 645.62095 329.054565 
L 646.238523 328.396767 
L 646.856095 328.956003 
L 648.091239 328.720309 
L 649.326383 328.731023 
L 649.943955 328.683884 
L 650.561527 329.110275 
L 651.1791 329.063136 
L 652.414244 328.621747 
L 654.26696 328.529612 
L 654.884532 329.129559 
L 655.502104 328.936719 
L 656.119676 329.054565 
L 656.737249 328.754592 
L 657.354821 329.303115 
L 657.972393 328.900293 
L 658.589965 329.264547 
L 660.442681 328.591749 
L 661.060253 328.915292 
L 661.677826 328.881009 
L 662.295398 328.377483 
L 662.91297 328.79316 
L 664.148114 328.718167 
L 664.765686 328.443905 
L 665.383258 328.932433 
L 666.00083 328.92172 
L 666.618402 329.045995 
L 667.235975 328.482473 
L 667.853547 328.289633 
L 668.471119 328.88958 
L 669.088691 328.394624 
L 669.706263 328.767448 
L 670.323835 328.675313 
L 670.941407 329.097419 
L 671.558979 328.456761 
L 672.176552 328.791017 
L 672.794124 328.810301 
L 673.411696 328.623889 
L 674.64684 328.737451 
L 675.264412 328.833871 
L 675.881984 328.662457 
L 676.499556 329.163841 
L 677.117128 328.690312 
L 678.352273 329.054565 
L 678.352273 329.054565 
" clip-path="url(#pc9018112a0)" style="fill: none; stroke: #1f77b4; stroke-width: 1.5; stroke-linecap: square"/>
   </g>
   <g id="line2d_16">
    <path d="M 61.397727 117.85834 
L 62.015299 118.25045 
L 62.632872 120.594522 
L 63.250444 123.403552 
L 63.868016 132.55274 
L 64.485588 139.587125 
L 65.10316 139.27857 
L 65.720732 140.600613 
L 66.338304 142.983245 
L 66.955876 146.280812 
L 67.573448 144.894504 
L 68.191021 146.902192 
L 68.808593 156.899863 
L 69.426165 158.999688 
L 70.043737 163.77569 
L 70.661309 164.898439 
L 71.278881 168.930938 
L 71.896453 168.031022 
L 72.514025 171.926387 
L 73.131598 171.362867 
L 73.74917 174.191186 
L 74.366742 179.942108 
L 74.984314 180.977011 
L 75.601886 180.460632 
L 76.219458 181.097 
L 76.83703 192.228159 
L 77.454602 198.347609 
L 78.072174 197.859081 
L 78.689747 199.965322 
L 79.307319 209.523763 
L 79.924891 212.287807 
L 80.542463 216.774545 
L 81.160035 215.416099 
L 81.777607 218.942926 
L 82.395179 217.057383 
L 83.012751 221.696252 
L 83.630324 220.350659 
L 84.247896 225.587337 
L 84.865468 225.328069 
L 85.48304 228.921328 
L 86.100612 229.793392 
L 86.718184 231.239684 
L 87.953328 238.636171 
L 88.5709 244.048551 
L 89.188473 242.700812 
L 89.806045 248.878121 
L 90.423617 248.091762 
L 91.041189 247.076138 
L 91.658761 249.87446 
L 92.276333 250.174432 
L 92.893905 253.1206 
L 93.511477 255.413256 
L 94.12905 258.181581 
L 94.746622 262.876163 
L 95.364194 260.817059 
L 95.981766 259.647163 
L 96.599338 263.433257 
L 97.21691 263.773939 
L 97.834482 264.958834 
L 98.452054 266.846522 
L 99.069626 267.131501 
L 99.687199 270.253366 
L 100.304771 269.08561 
L 100.922343 269.728409 
L 101.539915 269.1906 
L 102.157487 272.689576 
L 102.775059 270.253366 
L 103.392631 272.385318 
L 104.010203 271.131856 
L 104.627776 271.556103 
L 105.245348 274.836526 
L 105.86292 275.292916 
L 106.480492 281.729487 
L 107.098064 282.90581 
L 107.715636 281.579501 
L 108.95078 286.132665 
L 109.568352 287.026159 
L 110.185925 288.346041 
L 110.803497 288.958844 
L 111.421069 286.578342 
L 112.038641 287.538257 
L 112.656213 290.812251 
L 113.273785 294.834037 
L 113.891357 294.716189 
L 114.508929 294.150526 
L 115.126502 294.407645 
L 115.744074 296.916707 
L 116.361646 295.86466 
L 117.59679 298.358724 
L 118.214362 298.463714 
L 118.831934 300.599952 
L 119.449506 300.522816 
L 120.067078 300.015004 
L 120.684651 302.796185 
L 121.302223 303.445413 
L 121.919795 304.371046 
L 122.537367 302.609772 
L 123.154939 301.93269 
L 123.772511 302.764044 
L 124.390083 306.179455 
L 125.007655 304.724585 
L 125.625228 303.640395 
L 126.2428 308.137853 
L 126.860372 308.169993 
L 127.477944 307.503623 
L 128.095516 308.289982 
L 128.713088 308.572815 
L 129.33066 307.293643 
L 129.948232 309.183474 
L 130.565804 309.408456 
L 131.183377 310.160531 
L 131.800949 311.452559 
L 132.418521 311.197581 
L 133.036093 311.705393 
L 133.653665 311.146158 
L 134.271237 312.532462 
L 134.888809 312.035364 
L 135.506381 312.421044 
L 136.123953 312.286055 
L 136.741526 314.319446 
L 137.359098 313.648792 
L 137.97667 314.13732 
L 138.594242 315.536481 
L 139.211814 315.024384 
L 139.829386 315.911447 
L 141.06453 315.52791 
L 141.682103 316.241419 
L 142.917247 315.611474 
L 143.534819 316.174996 
L 144.152391 317.357747 
L 144.769963 317.792709 
L 145.387535 316.369979 
L 146.005107 317.981263 
L 146.622679 316.914216 
L 147.857824 316.897074 
L 148.475396 318.77405 
L 149.71054 317.679148 
L 150.328112 319.129733 
L 150.945684 319.579694 
L 151.563256 318.574782 
L 152.180829 318.045544 
L 152.798401 318.084112 
L 153.415973 318.405512 
L 154.033545 318.133394 
L 154.651117 319.262579 
L 155.268689 318.212671 
L 155.886261 319.071882 
L 156.503833 319.134019 
L 157.121405 318.793335 
L 157.738978 319.616119 
L 158.35655 319.063311 
L 158.974122 319.928947 
L 159.591694 320.121788 
L 160.209266 321.1117 
L 160.826838 320.261061 
L 161.44441 319.1833 
L 162.061982 319.316145 
L 162.679555 320.134644 
L 163.297127 319.669685 
L 163.914699 321.253116 
L 164.532271 320.406762 
L 165.149843 320.085363 
L 165.767415 321.302397 
L 166.384987 320.246062 
L 167.002559 320.385336 
L 167.620131 321.493094 
L 168.237704 320.623172 
L 168.855276 322.230172 
L 169.472848 321.452383 
L 170.09042 321.572374 
L 170.707992 321.038849 
L 171.325564 322.500148 
L 171.943136 321.510236 
L 172.560708 321.604513 
L 173.178281 320.869578 
L 173.795853 321.775927 
L 174.413425 321.670936 
L 175.030997 321.872347 
L 175.648569 322.502291 
L 176.266141 322.350162 
L 176.883713 322.414441 
L 177.501285 321.651652 
L 178.118857 322.585854 
L 178.73643 321.859491 
L 179.354002 322.416584 
L 179.971574 322.281596 
L 180.589146 322.523718 
L 181.206718 322.170177 
L 181.82429 321.670936 
L 182.441862 321.887345 
L 183.059434 322.797979 
L 184.294579 322.543001 
L 184.912151 321.857348 
L 185.529723 322.453009 
L 186.764867 322.716557 
L 187.382439 322.315879 
L 188.000011 322.180891 
L 188.617583 322.19589 
L 189.235156 322.952251 
L 191.087872 323.355072 
L 191.705444 322.502291 
L 192.323016 323.018673 
L 192.940588 322.954394 
L 193.55816 323.022959 
L 194.175733 323.775034 
L 194.793305 322.305165 
L 195.410877 323.335788 
L 196.028449 323.952876 
L 196.646021 323.592908 
L 197.263593 323.018673 
L 197.881165 323.220084 
L 198.498737 322.982248 
L 199.116309 323.243653 
L 199.733882 324.015013 
L 200.351454 323.978588 
L 201.586598 323.089382 
L 202.20417 322.999389 
L 202.821742 323.333645 
L 204.056886 323.547912 
L 204.674459 322.941537 
L 205.292031 323.616478 
L 205.909603 323.704327 
L 206.527175 323.565053 
L 207.144747 323.644332 
L 207.762319 323.449349 
L 208.379891 323.378641 
L 208.997463 323.689328 
L 209.615035 323.757893 
L 210.232608 323.149376 
L 210.85018 323.798604 
L 212.085324 323.28865 
L 212.702896 323.916451 
L 213.320468 323.81146 
L 213.93804 324.344984 
L 214.555612 323.337931 
L 215.790757 324.349269 
L 216.408329 323.828601 
L 217.025901 323.946448 
L 218.261045 323.547912 
L 218.878617 323.580052 
L 219.496189 324.188569 
L 220.113761 323.813602 
L 220.731334 324.632102 
L 221.348906 324.13286 
L 221.966478 324.282846 
L 222.58405 323.901452 
L 223.201622 323.710755 
L 223.819194 324.334271 
L 225.054338 324.336413 
L 225.671911 324.055724 
L 226.289483 323.26508 
L 226.907055 323.762179 
L 228.142199 324.137145 
L 228.759771 324.098577 
L 229.377343 323.854314 
L 229.994915 323.813602 
L 230.612487 324.057867 
L 231.23006 324.02787 
L 231.847632 323.612192 
L 233.082776 324.291417 
L 233.700348 324.017156 
L 234.31792 324.449975 
L 234.935492 323.537199 
L 236.170637 324.284989 
L 238.023353 324.35784 
L 238.640925 324.529253 
L 239.258497 324.505684 
L 239.876069 324.242136 
L 240.493641 324.522825 
L 241.111213 323.785748 
L 241.728786 324.657813 
L 242.346358 324.145716 
L 242.96393 324.475686 
L 243.581502 324.137145 
L 244.199074 324.364268 
L 244.816646 325.058492 
L 246.05179 324.246421 
L 246.669363 324.812085 
L 247.286935 324.737092 
L 247.904507 324.548537 
L 248.522079 324.47783 
L 249.139651 323.798604 
L 249.757223 324.55068 
L 250.374795 324.827084 
L 251.609939 324.908505 
L 252.227512 324.715665 
L 252.845084 324.218567 
L 253.462656 324.719951 
L 254.080228 324.165 
L 254.6978 325.028495 
L 255.315372 324.524968 
L 255.932944 325.317754 
L 256.550516 325.045636 
L 257.168089 325.356322 
L 257.785661 324.47783 
L 258.403233 325.673437 
L 259.020805 324.437118 
L 259.638377 324.522825 
L 260.255949 324.974928 
L 260.873521 324.730664 
L 261.491093 325.352038 
L 262.726238 324.914933 
L 263.961382 325.221334 
L 264.578954 324.833512 
L 265.196526 325.127057 
L 265.814098 324.977071 
L 266.43167 324.694238 
L 267.049242 325.184909 
L 267.666815 324.835655 
L 268.284387 325.180624 
L 268.901959 324.799229 
L 269.519531 325.330611 
L 270.754675 325.748431 
L 271.372247 325.639155 
L 271.989819 324.797087 
L 272.607391 325.626298 
L 273.224964 324.728522 
L 273.842536 325.772 
L 275.695252 325.652011 
L 276.312824 325.735575 
L 276.930396 325.664867 
L 277.547968 325.748431 
L 278.165541 325.684151 
L 278.783113 326.076258 
L 279.400685 325.493453 
L 280.018257 325.80414 
L 280.635829 325.679865 
L 281.253401 325.229905 
L 281.870973 325.330611 
L 282.488545 325.966983 
L 283.106117 325.789141 
L 283.72369 325.86842 
L 284.341262 325.819139 
L 285.576406 325.994837 
L 286.193978 326.534789 
L 286.81155 325.876991 
L 287.429122 325.772 
L 288.046694 325.939128 
L 288.664267 325.904845 
L 289.281839 326.344092 
L 289.899411 325.786999 
L 290.516983 325.754859 
L 291.134555 325.911273 
L 291.752127 325.870563 
L 292.369699 326.228388 
L 292.987271 326.074116 
L 293.604843 326.380517 
L 294.222416 326.168393 
L 294.839988 326.530504 
L 296.075132 325.973411 
L 297.310276 326.384803 
L 297.927848 326.341949 
L 298.54542 326.176964 
L 299.162993 326.399801 
L 300.398137 326.299096 
L 301.015709 325.969125 
L 301.633281 326.245529 
L 302.250853 326.301239 
L 302.868425 325.85985 
L 303.485997 326.794052 
L 304.103569 326.614068 
L 304.721142 326.596927 
L 305.338714 326.168393 
L 305.956286 326.721202 
L 306.573858 326.378375 
L 307.19143 326.847619 
L 309.661719 326.54336 
L 310.279291 326.809051 
L 310.896863 326.783339 
L 311.514435 326.58407 
L 312.132007 326.691204 
L 312.749579 326.489793 
L 313.367151 326.524076 
L 313.984723 326.781196 
L 314.602295 326.153394 
L 315.83744 327.066171 
L 316.455012 326.333379 
L 317.072584 326.815479 
L 317.690156 326.586213 
L 318.307728 326.982607 
L 318.9253 326.614068 
L 319.542872 326.682633 
L 320.160445 326.984749 
L 320.778017 326.781196 
L 321.395589 326.802623 
L 322.013161 327.016889 
L 323.248305 326.669777 
L 323.865877 326.815479 
L 324.483449 326.545502 
L 325.101021 326.453368 
L 325.718594 326.815479 
L 326.336166 326.483366 
L 326.953738 326.659064 
L 327.57131 326.603354 
L 328.188882 326.909756 
L 328.806454 326.58407 
L 329.424026 327.235441 
L 330.041598 326.474795 
L 330.659171 326.620496 
L 331.276743 327.177589 
L 331.894315 326.802623 
L 333.129459 327.004033 
L 333.747031 326.888329 
L 334.364603 327.096168 
L 334.982175 327.008319 
L 335.599747 327.192588 
L 336.21732 326.954752 
L 336.834892 326.967608 
L 338.070036 327.141164 
L 338.687608 326.989035 
L 340.540324 327.02546 
L 342.393041 327.188303 
L 343.010613 326.954752 
L 343.628185 326.982607 
L 344.245757 327.520416 
L 344.863329 326.920469 
L 345.480901 327.231156 
L 347.333618 327.316863 
L 347.95119 326.974036 
L 348.568762 327.241869 
L 349.186334 326.766197 
L 349.803906 327.235441 
L 350.421478 327.456136 
L 351.03905 327.338289 
L 352.274195 326.907613 
L 352.891767 326.967608 
L 353.509339 327.209729 
L 354.126911 326.916184 
L 354.744483 327.393999 
L 355.362055 327.582553 
L 355.979627 327.372572 
L 356.597199 327.676831 
L 357.214772 327.490419 
L 357.832344 327.481848 
L 358.449916 326.948324 
L 359.067488 327.445423 
L 359.68506 327.379 
L 360.302632 327.57184 
L 360.920204 327.591124 
L 361.537776 327.010461 
L 362.772921 327.625407 
L 363.390493 327.220443 
L 364.008065 327.423996 
L 364.625637 327.462564 
L 365.243209 327.214015 
L 365.860781 327.520416 
L 366.478353 327.674688 
L 367.095925 327.618979 
L 367.713498 327.768965 
L 368.33107 327.681116 
L 368.948642 327.856815 
L 369.566214 327.520416 
L 371.41893 327.526844 
L 372.654075 327.462564 
L 375.741935 327.953235 
L 376.359507 328.227496 
L 376.977079 328.206069 
L 377.594651 327.659689 
L 378.212224 327.7004 
L 378.829796 327.944664 
L 379.447368 327.76468 
L 380.06494 327.766823 
L 380.682512 327.655404 
L 381.917656 328.08608 
L 382.535228 327.929665 
L 383.152801 327.972519 
L 383.770373 327.880384 
L 384.387945 327.976804 
L 385.005517 327.858957 
L 386.240661 328.017515 
L 386.858233 327.756109 
L 387.475805 327.963948 
L 388.093377 327.798963 
L 388.71095 327.908239 
L 389.328522 328.184643 
L 389.946094 328.184643 
L 390.563666 327.719684 
L 391.181238 328.259636 
L 391.79881 327.901811 
L 392.416382 328.383911 
L 393.033954 327.974661 
L 393.651527 328.096793 
L 394.269099 327.728255 
L 394.886671 327.766823 
L 395.504243 327.916809 
L 396.121815 328.319631 
L 396.739387 328.079652 
L 397.356959 327.681116 
L 397.974531 327.618979 
L 398.592103 328.411765 
L 400.44482 328.077509 
L 401.062392 328.075367 
L 401.679964 328.266064 
L 402.297536 328.21464 
L 402.915108 328.304632 
L 404.767825 327.98966 
L 406.002969 328.377483 
L 407.238113 328.229639 
L 407.855685 328.255351 
L 409.090829 328.0218 
L 409.708402 328.244637 
L 411.561118 328.443905 
L 412.17869 328.223211 
L 412.796262 328.199641 
L 414.031406 328.591749 
L 415.266551 328.281063 
L 415.884123 328.47176 
L 416.501695 328.019657 
L 417.119267 328.465332 
L 417.736839 328.347485 
L 419.589555 328.266064 
L 420.207128 328.538183 
L 420.8247 328.364627 
L 421.442272 328.390339 
L 422.059844 328.574608 
L 422.677416 328.493187 
L 423.294988 328.583179 
L 423.91256 328.405337 
L 424.530132 328.506043 
L 425.147705 328.469617 
L 425.765277 328.69674 
L 426.382849 328.598177 
L 427.000421 328.63246 
L 428.235565 328.403195 
L 428.853137 328.424621 
L 429.470709 328.705311 
L 430.088281 328.469617 
L 432.55857 328.718167 
L 433.176142 328.486759 
L 435.028858 328.649601 
L 435.646431 328.778161 
L 436.264003 328.647459 
L 436.881575 328.733165 
L 437.499147 328.578893 
L 438.116719 328.615319 
L 438.734291 328.527469 
L 439.351863 328.823157 
L 439.969435 328.598177 
L 440.587007 328.812444 
L 441.822152 328.576751 
L 442.439724 328.72888 
L 443.674868 328.60032 
L 444.29244 328.911007 
L 444.910012 328.76102 
L 445.527584 328.780304 
L 446.145157 328.373197 
L 446.762729 328.780304 
L 447.997873 328.630317 
L 449.233017 328.951717 
L 449.850589 328.806016 
L 451.703306 328.85744 
L 452.320878 329.041709 
L 452.93845 328.803873 
L 453.556022 328.915292 
L 457.261455 328.681741 
L 457.879027 328.977429 
L 458.496599 329.054565 
L 459.114171 328.863868 
L 460.349315 329.007427 
L 460.966887 328.651744 
L 461.584459 328.977429 
L 465.289892 328.990285 
L 465.907464 328.726737 
L 466.525036 329.097419 
L 467.142609 329.279545 
L 468.377753 328.808159 
L 468.995325 329.110275 
L 469.612897 329.127416 
L 470.230469 328.971001 
L 471.465613 329.21098 
L 472.083185 328.923863 
L 472.700758 329.060993 
L 473.935902 329.043852 
L 474.553474 328.936719 
L 475.171046 329.039567 
L 475.788618 328.915292 
L 476.40619 329.135987 
L 477.023762 328.945289 
L 477.641335 329.153128 
L 478.876479 329.069564 
L 480.111623 329.090991 
L 480.729195 329.185268 
L 485.0522 329.08242 
L 485.669772 329.221693 
L 488.140061 329.090991 
L 489.992777 329.313828 
L 490.610349 329.078135 
L 491.845493 329.268832 
L 492.463065 329.150985 
L 493.080637 329.369537 
L 494.933354 329.292401 
L 496.168498 329.202409 
L 496.78607 329.045995 
L 497.403642 329.279545 
L 499.256359 329.120988 
L 499.873931 329.337397 
L 501.109075 329.135987 
L 501.726647 329.405963 
L 502.344219 329.292401 
L 504.196936 329.605231 
L 504.814508 329.345968 
L 507.284796 329.174555 
L 507.902368 329.382393 
L 508.51994 329.232407 
L 509.755085 329.450959 
L 510.372657 329.352396 
L 510.990229 329.440245 
L 511.607801 329.221693 
L 512.225373 329.43596 
L 512.842945 329.285973 
L 514.695662 329.386679 
L 515.313234 329.232407 
L 515.930806 329.420961 
L 516.548378 329.459529 
L 517.16595 329.27526 
L 517.783522 329.545236 
L 518.401094 329.326684 
L 519.018666 329.521667 
L 520.253811 329.335255 
L 520.871383 329.603088 
L 521.488955 329.27526 
L 522.106527 329.416676 
L 524.576815 329.375965 
L 525.194388 329.523809 
L 525.81196 329.470243 
L 526.429532 329.558092 
L 527.664676 329.367395 
L 528.89982 329.545236 
L 530.134965 329.566663 
L 530.752537 329.72522 
L 531.370109 329.558092 
L 532.605253 329.656655 
L 533.222825 329.4681 
L 534.457969 329.547379 
L 535.075541 329.476671 
L 536.310686 329.656655 
L 536.928258 329.515239 
L 537.54583 329.577376 
L 538.163402 329.380251 
L 538.780974 329.643799 
L 540.016118 329.6288 
L 541.868835 329.815212 
L 542.486407 329.388821 
L 543.721551 329.6288 
L 545.574267 329.690937 
L 546.19184 329.575233 
L 548.044556 329.793785 
L 548.662128 329.620229 
L 549.2797 329.600945 
L 549.897272 329.798071 
L 550.514844 329.669511 
L 551.132417 329.714507 
L 552.367561 329.562377 
L 552.985133 329.7895 
L 554.837849 329.785215 
L 555.455421 329.783072 
L 556.072993 329.641656 
L 556.690566 329.787357 
L 557.308138 329.624515 
L 557.92571 329.675939 
L 558.543282 329.847352 
L 559.160854 329.69308 
L 559.778426 329.755217 
L 560.395998 329.598803 
L 561.01357 329.785215 
L 562.248715 329.650227 
L 562.866287 329.755217 
L 563.483859 329.705936 
L 564.719003 329.864493 
L 565.336575 329.763788 
L 565.954147 329.877349 
L 567.189292 329.748789 
L 569.65958 329.877349 
L 570.894724 329.746647 
L 572.129869 329.793785 
L 572.747441 329.639513 
L 573.365013 329.785215 
L 573.982585 329.727363 
L 574.600157 329.890205 
L 575.217729 329.714507 
L 575.835301 329.819497 
L 576.452873 329.72522 
L 580.158306 329.849495 
L 581.39345 329.723077 
L 582.011022 329.860208 
L 584.481311 329.731648 
L 585.098883 329.915917 
L 586.334027 329.875207 
L 586.951599 329.753075 
L 587.569171 329.913775 
L 588.186744 329.862351 
L 588.804316 329.933059 
L 589.421888 329.832353 
L 590.03946 329.965199 
L 591.892176 329.866636 
L 593.127321 329.913775 
L 593.744893 329.849495 
L 594.980037 329.877349 
L 598.68547 329.967341 
L 599.303042 329.898776 
L 599.920614 330.010195 
L 600.538186 329.88592 
L 601.155758 329.907347 
L 601.77333 329.810927 
L 603.008474 330.087331 
L 606.096335 329.858065 
L 606.713907 330.005909 
L 607.331479 329.843067 
L 607.949051 329.915917 
L 608.566623 329.847352 
L 609.801768 330.008052 
L 610.41934 330.053048 
L 611.654484 329.933059 
L 612.889628 329.817355 
L 613.5072 330.025193 
L 614.742345 329.939487 
L 615.359917 330.138755 
L 617.212633 329.892348 
L 618.447777 329.900919 
L 622.770782 330.091616 
L 623.388354 329.903061 
L 624.623498 330.033764 
L 631.416792 329.960913 
L 632.034364 330.138755 
L 633.269508 330.020908 
L 633.88708 329.922345 
L 634.504652 330.164467 
L 635.122224 329.952343 
L 635.739797 330.027336 
L 636.357369 329.939487 
L 636.974941 330.083045 
L 637.592513 329.855923 
L 638.210085 330.020908 
L 638.827657 329.819497 
L 640.062801 330.162324 
L 640.680374 330.038049 
L 641.297946 330.136612 
L 642.53309 329.943772 
L 645.003378 330.1109 
L 645.62095 329.980197 
L 646.856095 329.995196 
L 647.473667 330.128041 
L 649.326383 329.883777 
L 649.943955 329.933059 
L 650.561527 329.808784 
L 651.1791 330.149468 
L 651.796672 330.003767 
L 653.649388 330.123756 
L 654.26696 329.905204 
L 655.502104 330.179465 
L 657.354821 329.870921 
L 658.589965 330.055191 
L 659.825109 329.924488 
L 660.442681 329.928773 
L 661.677826 330.166609 
L 662.295398 330.029479 
L 662.91297 330.138755 
L 663.530542 329.967341 
L 664.765686 330.166609 
L 666.00083 329.900919 
L 669.706263 330.132327 
L 670.941407 330.061619 
L 672.176552 330.080903 
L 672.794124 329.956628 
L 678.352273 329.958771 
L 678.352273 329.958771 
" clip-path="url(#pc9018112a0)" style="fill: none; stroke: #ff7f0e; stroke-width: 1.5; stroke-linecap: square"/>
   </g>
   <g id="line2d_17">
    <path d="M 64.011003 -1 
L 64.485588 94.252585 
L 65.10316 97.931534 
L 65.720732 114.187954 
L 66.338304 114.42364 
L 66.955876 117.095557 
L 67.573448 122.077259 
L 68.191021 128.370255 
L 68.808593 126.49543 
L 69.426165 129.955836 
L 70.043737 141.153416 
L 70.661309 145.093777 
L 71.278881 146.8122 
L 71.896453 152.183865 
L 72.514025 159.183962 
L 73.131598 158.170473 
L 73.74917 160.679531 
L 74.366742 159.743181 
L 74.984314 164.058518 
L 75.601886 163.454282 
L 76.83703 170.947187 
L 77.454602 170.445807 
L 78.689747 179.288596 
L 79.307319 173.471253 
L 79.924891 179.967814 
L 80.542463 174.752571 
L 81.160035 181.917642 
L 81.777607 178.737929 
L 82.395179 182.266901 
L 83.012751 196.337796 
L 83.630324 194.975059 
L 84.247896 194.456534 
L 84.865468 194.75008 
L 85.48304 202.251557 
L 86.100612 203.455726 
L 86.718184 205.651968 
L 87.335756 202.050138 
L 87.953328 207.546083 
L 88.5709 205.898372 
L 89.188473 212.394933 
L 89.806045 221.122014 
L 90.423617 224.599564 
L 91.041189 231.74322 
L 91.658761 230.830441 
L 92.276333 237.791968 
L 92.893905 232.651709 
L 93.511477 242.670815 
L 94.12905 239.960339 
L 94.746622 241.882316 
L 95.364194 244.329244 
L 95.981766 249.160954 
L 96.599338 248.779557 
L 97.21691 250.260143 
L 97.834482 248.961686 
L 98.452054 256.61529 
L 99.069626 254.421198 
L 99.687199 258.691533 
L 100.304771 266.54441 
L 100.922343 263.152565 
L 101.539915 264.661002 
L 103.392631 276.355676 
L 104.010203 275.282203 
L 104.627776 276.242119 
L 105.245348 282.843675 
L 105.86292 280.381748 
L 106.480492 280.891706 
L 107.098064 284.127133 
L 107.715636 288.802431 
L 108.333208 288.800285 
L 108.95078 290.529418 
L 109.568352 290.270156 
L 110.185925 286.773324 
L 110.803497 294.557631 
L 111.421069 291.429339 
L 112.038641 298.118744 
L 112.656213 297.968758 
L 113.273785 301.450592 
L 113.891357 300.722084 
L 114.508929 306.008044 
L 115.126502 305.416667 
L 115.744074 307.627898 
L 116.361646 307.285073 
L 116.979218 312.894573 
L 117.59679 313.145266 
L 118.214362 313.580226 
L 118.831934 314.497288 
L 119.449506 315.825742 
L 120.067078 316.070006 
L 120.684651 316.976353 
L 121.302223 317.077059 
L 122.537367 321.621655 
L 123.154939 322.645849 
L 123.772511 322.810835 
L 125.007655 323.479347 
L 126.2428 326.232674 
L 127.477944 325.881276 
L 128.095516 326.322665 
L 128.713088 326.952609 
L 129.33066 326.232674 
L 129.948232 327.833245 
L 130.565804 327.531129 
L 131.183377 327.687544 
L 131.800949 327.449708 
L 132.418521 328.11822 
L 133.036093 329.247405 
L 133.653665 329.470243 
L 134.271237 329.472385 
L 136.123953 330.063761 
L 137.359098 330.190179 
L 137.97667 330.123756 
L 138.594242 330.198749 
L 139.211814 330.119471 
L 139.829386 330.305883 
L 140.446958 330.353021 
L 141.06453 330.263029 
L 144.152391 330.415159 
L 149.71054 330.453727 
L 150.328112 330.642281 
L 154.033545 330.631568 
L 155.268689 330.571573 
L 155.886261 330.693705 
L 156.503833 330.569431 
L 157.121405 330.740844 
L 157.738978 330.663708 
L 159.591694 330.78584 
L 160.209266 330.68942 
L 162.679555 330.835121 
L 163.297127 330.661565 
L 163.914699 330.755843 
L 166.384987 330.648709 
L 167.002559 330.822265 
L 168.237704 330.717275 
L 169.472848 330.858691 
L 170.09042 330.554432 
L 170.707992 330.839407 
L 171.943136 330.777269 
L 173.178281 330.764413 
L 173.795853 330.867261 
L 175.030997 330.777269 
L 176.266141 330.783697 
L 176.883713 330.757985 
L 177.501285 330.85012 
L 181.82429 330.736559 
L 182.441862 330.929399 
L 184.912151 330.847977 
L 201.586598 330.972252 
L 202.20417 330.749415 
L 202.821742 330.931541 
L 205.909603 330.867261 
L 206.527175 331.025819 
L 207.144747 330.892973 
L 207.762319 330.912257 
L 208.379891 330.800839 
L 210.232608 330.944397 
L 212.702896 330.839407 
L 213.93804 330.912257 
L 215.790757 330.81798 
L 216.408329 330.920828 
L 220.113761 330.860833 
L 220.731334 331.049388 
L 221.348906 330.897259 
L 222.58405 330.957253 
L 223.201622 330.85012 
L 225.671911 330.912257 
L 226.289483 330.81798 
L 226.907055 331.062244 
L 228.142199 330.792268 
L 229.377343 330.925113 
L 229.994915 330.929399 
L 230.612487 330.820123 
L 234.31792 331.015105 
L 234.935492 330.895116 
L 236.170637 330.822265 
L 236.788209 330.725845 
L 238.023353 330.976537 
L 240.493641 330.809409 
L 241.111213 331.008677 
L 241.728786 330.875832 
L 244.816646 331.012963 
L 245.434218 330.852263 
L 246.05179 330.903687 
L 246.669363 330.798696 
L 247.904507 330.952968 
L 249.757223 330.972252 
L 250.992367 330.929399 
L 251.609939 330.646567 
L 252.227512 330.972252 
L 255.315372 330.993679 
L 255.932944 330.895116 
L 256.550516 331.019391 
L 257.785661 330.85012 
L 258.403233 330.993679 
L 259.020805 330.886545 
L 261.491093 330.907972 
L 262.108665 330.867261 
L 263.34381 331.079385 
L 263.961382 330.852263 
L 264.578954 330.779412 
L 265.814098 331.000107 
L 266.43167 330.766556 
L 267.666815 331.015105 
L 269.519531 330.965824 
L 270.137103 331.032247 
L 271.372247 330.794411 
L 271.989819 330.948683 
L 273.224964 330.925113 
L 274.460108 331.000107 
L 275.07768 331.008677 
L 275.695252 330.839407 
L 278.165541 330.985108 
L 278.783113 330.942255 
L 279.400685 331.021533 
L 280.635829 330.970109 
L 281.870973 330.869404 
L 283.72369 330.982965 
L 286.81155 330.798696 
L 287.429122 331.062244 
L 288.664267 331.049388 
L 289.281839 331.049388 
L 289.899411 330.674421 
L 290.516983 330.813695 
L 291.134555 331.141523 
L 292.369699 330.768699 
L 292.987271 330.751557 
L 293.604843 330.599428 
L 294.222416 330.993679 
L 295.45756 331.034389 
L 296.075132 331.229372 
L 296.692704 331.098669 
L 297.310276 330.509436 
L 297.927848 330.892973 
L 298.54542 330.897259 
L 299.162993 331.077243 
L 299.780565 331.019391 
L 300.398137 330.286599 
L 301.633281 331.090099 
L 303.485997 331.13938 
L 304.103569 331.289367 
L 304.721142 331.244371 
L 305.338714 330.706561 
L 306.573858 330.038049 
L 307.19143 330.738701 
L 307.809002 331.165092 
L 308.426574 331.081528 
L 309.044146 331.357932 
L 309.661719 331.214373 
L 310.896863 331.285081 
L 312.132007 330.558717 
L 312.749579 330.316596 
L 313.367151 330.290884 
L 313.984723 330.736559 
L 314.602295 331.036532 
L 315.83744 331.152236 
L 316.455012 331.255084 
L 318.307728 331.197232 
L 318.9253 330.053048 
L 319.542872 330.310168 
L 320.160445 330.350879 
L 320.778017 330.875832 
L 322.013161 330.989393 
L 323.248305 331.252941 
L 323.865877 331.319364 
L 324.483449 331.227229 
L 325.101021 330.880117 
L 325.718594 329.785215 
L 326.336166 330.845835 
L 327.57131 330.867261 
L 328.188882 331.246513 
L 329.424026 331.278653 
L 330.041598 329.675939 
L 330.659171 331.225087 
L 331.276743 331.315079 
L 332.511887 331.293652 
L 333.129459 330.852263 
L 333.747031 329.605231 
L 334.364603 329.637371 
L 334.982175 329.915917 
L 335.599747 331.197232 
L 338.687608 331.334363 
L 339.922752 331.207945 
L 340.540324 330.089473 
L 341.157897 330.905829 
L 341.775469 331.227229 
L 342.393041 331.317221 
L 343.010613 329.860208 
L 343.628185 329.978055 
L 344.245757 329.965199 
L 344.863329 330.723703 
L 347.333618 331.285081 
L 347.95119 331.409356 
L 348.568762 331.289367 
L 349.186334 330.282313 
L 349.803906 330.479439 
L 350.421478 331.032247 
L 352.891767 331.302223 
L 354.126911 331.17152 
L 354.744483 330.646567 
L 355.362055 331.255084 
L 355.979627 331.248656 
L 356.597199 331.441496 
L 357.832344 331.312936 
L 358.449916 330.213748 
L 359.067488 331.381501 
L 359.68506 331.417927 
L 360.302632 331.250799 
L 360.920204 330.194464 
L 361.537776 331.017248 
L 362.155349 331.261512 
L 363.390493 331.379359 
L 364.008065 331.317221 
L 364.625637 331.394357 
L 365.243209 331.325792 
L 365.860781 329.611659 
L 366.478353 330.554432 
L 367.095925 331.282939 
L 371.41893 331.207945 
L 372.036502 331.087956 
L 372.654075 329.82164 
L 373.271647 330.667993 
L 373.889219 331.090099 
L 375.124363 331.150093 
L 375.741935 331.319364 
L 376.977079 331.338648 
L 377.594651 331.379359 
L 378.212224 330.147325 
L 378.829796 330.185893 
L 379.447368 331.177948 
L 380.06494 331.360075 
L 380.682512 331.302223 
L 381.300084 331.392215 
L 381.917656 331.141523 
L 382.535228 330.230889 
L 383.152801 331.197232 
L 383.770373 331.462923 
L 385.005517 331.36436 
L 386.240661 331.390072 
L 386.858233 329.369537 
L 387.475805 330.770841 
L 388.093377 330.944397 
L 388.71095 331.257227 
L 389.946094 331.379359 
L 391.181238 331.242228 
L 391.79881 330.421587 
L 392.416382 331.072957 
L 393.033954 330.907972 
L 393.651527 331.291509 
L 394.269099 331.218659 
L 396.121815 331.360075 
L 397.356959 331.143665 
L 397.974531 331.417927 
L 399.209676 331.441496 
L 399.827248 330.571573 
L 400.44482 330.522292 
L 401.062392 329.735933 
L 401.679964 329.671653 
L 402.297536 329.783072 
L 402.915108 330.839407 
L 403.53268 330.807267 
L 404.150253 331.321507 
L 404.767825 331.366503 
L 405.385397 330.768699 
L 406.002969 330.573716 
L 406.620541 331.280796 
L 407.238113 331.098669 
L 407.855685 331.497205 
L 410.943546 331.409356 
L 411.561118 330.085188 
L 412.17869 331.130809 
L 412.796262 331.308651 
L 415.266551 331.445781 
L 416.501695 331.445781 
L 417.119267 328.943147 
L 417.736839 328.990285 
L 418.354411 330.029479 
L 418.971983 331.312936 
L 419.589555 331.445781 
L 420.207128 329.517381 
L 420.8247 329.630943 
L 421.442272 331.060101 
L 422.677416 331.465065 
L 423.294988 331.405071 
L 423.91256 329.795928 
L 424.530132 330.556575 
L 425.147705 330.674421 
L 425.765277 331.426497 
L 428.235565 331.383644 
L 428.853137 331.150093 
L 429.470709 329.963056 
L 430.088281 331.306508 
L 430.705854 329.701651 
L 431.323426 330.687277 
L 431.940998 330.768699 
L 432.55857 331.246513 
L 433.176142 331.484349 
L 436.881575 331.216516 
L 437.499147 331.548629 
L 438.734291 331.46078 
L 439.351863 329.740219 
L 439.969435 330.937969 
L 441.20458 331.000107 
L 441.822152 331.312936 
L 442.439724 331.435068 
L 443.057296 331.287224 
L 443.674868 330.440871 
L 444.910012 331.469351 
L 445.527584 331.465065 
L 446.145157 331.038675 
L 446.762729 330.104472 
L 447.997873 331.370788 
L 448.615445 331.366503 
L 449.233017 331.501491 
L 451.085733 331.040817 
L 451.703306 331.038675 
L 452.320878 331.295795 
L 452.93845 331.255084 
L 454.173594 331.482207 
L 454.791166 331.488635 
L 455.408738 331.349361 
L 456.643883 331.454352 
L 457.879027 330.747272 
L 459.114171 331.336505 
L 459.731743 331.287224 
L 461.584459 331.458637 
L 465.289892 331.36436 
L 465.907464 330.631568 
L 467.142609 331.150093 
L 467.760181 331.126524 
L 468.377753 331.33222 
L 470.848041 331.377216 
L 471.465613 331.237943 
L 472.083185 330.862976 
L 472.700758 330.961539 
L 473.31833 330.783697 
L 473.935902 331.094384 
L 474.553474 331.01082 
L 475.171046 331.081528 
L 475.788618 330.931541 
L 476.40619 331.244371 
L 477.641335 331.282939 
L 478.258907 331.471493 
L 479.494051 331.420069 
L 480.111623 330.802981 
L 480.729195 330.841549 
L 481.346767 330.652995 
L 482.581911 331.447924 
L 483.199484 331.287224 
L 483.817056 330.875832 
L 484.434628 330.629425 
L 485.669772 330.612284 
L 486.287344 331.274368 
L 486.904916 331.424355 
L 488.140061 331.353647 
L 488.757633 331.497205 
L 489.992777 331.336505 
L 490.610349 330.869404 
L 492.463065 331.394357 
L 493.080637 331.370788 
L 493.69821 331.199375 
L 494.315782 331.469351 
L 495.550926 331.426497 
L 496.168498 331.437211 
L 496.78607 330.835121 
L 497.403642 331.293652 
L 498.021214 331.441496 
L 498.638787 331.445781 
L 500.491503 331.01082 
L 501.109075 331.407213 
L 502.344219 331.381501 
L 503.579363 331.062244 
L 504.196936 331.137237 
L 504.814508 331.038675 
L 506.049652 331.360075 
L 506.667224 331.180091 
L 507.284796 331.357932 
L 508.51994 331.495063 
L 509.755085 331.169377 
L 510.990229 331.450067 
L 512.842945 331.439353 
L 513.460517 331.117953 
L 514.078089 331.477921 
L 514.695662 331.527203 
L 515.313234 331.420069 
L 515.930806 331.475779 
L 518.401094 331.167235 
L 519.018666 331.274368 
L 519.636239 331.220801 
L 520.253811 331.398643 
L 521.488955 331.452209 
L 523.959243 331.407213 
L 524.576815 331.248656 
L 525.81196 331.212231 
L 526.429532 331.450067 
L 527.664676 331.312936 
L 531.987681 331.289367 
L 532.605253 331.471493 
L 533.840397 331.402928 
L 535.693114 331.381501 
L 536.310686 331.237943 
L 537.54583 331.36436 
L 538.163402 331.257227 
L 538.780974 331.282939 
L 539.398546 331.477921 
L 540.016118 331.400785 
L 542.486407 331.475779 
L 544.339123 331.287224 
L 545.574267 331.33222 
L 548.044556 331.462923 
L 549.2797 331.420069 
L 549.897272 331.096527 
L 550.514844 331.379359 
L 551.132417 331.420069 
L 551.749989 331.315079 
L 552.367561 331.420069 
L 557.308138 331.222944 
L 557.92571 331.488635 
L 562.248715 331.347219 
L 563.483859 331.439353 
L 565.336575 331.334363 
L 565.954147 331.450067 
L 567.189292 331.310793 
L 568.424436 331.46078 
L 569.65958 331.293652 
L 570.894724 331.338648 
L 572.129869 331.52506 
L 573.365013 331.248656 
L 573.982585 331.315079 
L 574.600157 331.495063 
L 575.835301 331.563628 
L 576.452873 331.323649 
L 580.158306 331.452209 
L 583.246167 331.514347 
L 585.716455 331.368645 
L 586.334027 331.465065 
L 587.569171 331.383644 
L 589.421888 331.413641 
L 590.657032 331.370788 
L 593.127321 331.420069 
L 593.744893 331.304365 
L 594.362465 331.488635 
L 599.303042 331.424355 
L 599.920614 331.490777 
L 601.155758 331.3965 
L 602.390902 331.467208 
L 604.243619 331.334363 
L 604.861191 331.520775 
L 605.478763 331.503633 
L 606.096335 331.357932 
L 606.713907 331.484349 
L 615.977489 331.398643 
L 616.595061 331.533631 
L 618.447777 331.439353 
L 619.682922 331.535773 
L 620.300494 331.400785 
L 623.388354 331.477921 
L 624.005926 331.347219 
L 624.623498 331.482207 
L 625.241071 331.411499 
L 626.476215 331.505776 
L 627.711359 331.375073 
L 638.210085 331.548629 
L 638.827657 331.357932 
L 640.062801 331.467208 
L 641.297946 331.454352 
L 642.53309 331.49292 
L 643.150662 331.405071 
L 643.768234 331.510061 
L 650.561527 331.477921 
L 653.031816 331.520775 
L 654.26696 331.49292 
L 656.119676 331.552915 
L 659.207537 331.458637 
L 659.825109 331.544344 
L 660.442681 331.462923 
L 662.295398 331.503633 
L 663.530542 331.548629 
L 665.383258 331.415784 
L 669.088691 331.514347 
L 669.706263 331.462923 
L 670.323835 331.531488 
L 670.941407 331.387929 
L 671.558979 331.518632 
L 674.029268 331.458637 
L 675.264412 331.469351 
L 675.881984 331.437211 
L 677.117128 331.542201 
L 678.352273 331.587197 
L 678.352273 331.587197 
" clip-path="url(#pc9018112a0)" style="fill: none; stroke: #2ca02c; stroke-width: 1.5; stroke-linecap: square"/>
   </g>
   <g id="line2d_18">
    <path d="M 61.397727 118.833249 
L 62.015299 122.837896 
L 62.632872 123.08002 
L 63.250444 124.639874 
L 63.868016 125.561226 
L 64.485588 126.062616 
L 65.10316 128.376692 
L 65.720732 137.172329 
L 66.338304 136.960203 
L 66.955876 137.920134 
L 67.573448 139.809958 
L 68.191021 145.003786 
L 68.808593 144.633112 
L 69.426165 146.282958 
L 70.043737 149.544091 
L 70.661309 147.694972 
L 71.278881 148.432049 
L 71.896453 152.893091 
L 72.514025 150.990394 
L 73.131598 153.120215 
L 73.74917 155.922808 
L 74.366742 157.994781 
L 74.984314 162.451522 
L 75.601886 163.891387 
L 76.219458 164.709894 
L 76.83703 166.081193 
L 77.454602 165.706228 
L 78.689747 167.032542 
L 79.307319 167.094682 
L 79.924891 168.155302 
L 80.542463 171.849259 
L 81.160035 179.252172 
L 81.777607 178.172263 
L 82.395179 180.325645 
L 83.630324 181.720525 
L 84.247896 185.465905 
L 84.865468 187.390017 
L 85.48304 187.291453 
L 86.100612 185.688738 
L 86.718184 185.675885 
L 87.953328 189.164143 
L 88.5709 191.396799 
L 89.188473 192.215306 
L 89.806045 195.671421 
L 90.423617 195.281457 
L 91.041189 198.801858 
L 91.658761 196.537059 
L 92.276333 201.548758 
L 92.893905 199.281813 
L 93.511477 197.610532 
L 94.12905 202.849355 
L 94.746622 199.628927 
L 95.364194 202.135849 
L 95.981766 205.219144 
L 96.599338 205.058441 
L 97.21691 203.661425 
L 97.834482 204.985593 
L 98.452054 205.519116 
L 99.069626 206.6783 
L 99.687199 214.814009 
L 100.304771 214.927571 
L 101.539915 221.814095 
L 102.157487 220.256376 
L 102.775059 221.319141 
L 103.392631 221.252721 
L 104.010203 221.312715 
L 104.627776 222.583315 
L 105.245348 224.282448 
L 105.86292 224.194602 
L 107.098064 228.86776 
L 107.715636 231.083272 
L 108.333208 228.872041 
L 108.95078 234.854368 
L 109.568352 231.462528 
L 110.803497 233.060952 
L 111.421069 233.716609 
L 112.038641 232.591714 
L 112.656213 241.063819 
L 113.273785 238.492611 
L 113.891357 238.411192 
L 114.508929 243.540734 
L 115.126502 243.347898 
L 115.744074 244.037833 
L 116.361646 247.313975 
L 116.979218 249.000256 
L 117.59679 247.47896 
L 118.214362 253.315582 
L 118.831934 251.093638 
L 119.449506 252.471374 
L 120.067078 252.400667 
L 120.684651 251.648592 
L 121.302223 255.565382 
L 121.919795 256.420308 
L 122.537367 254.241214 
L 123.154939 253.696979 
L 123.772511 259.696445 
L 124.390083 257.534495 
L 125.007655 258.584403 
L 125.625228 260.784921 
L 126.2428 260.795634 
L 126.860372 263.767513 
L 127.477944 263.891787 
L 128.095516 265.749479 
L 128.713088 265.914463 
L 129.33066 264.79599 
L 129.948232 268.961335 
L 130.565804 265.813759 
L 131.183377 269.192746 
L 131.800949 270.572622 
L 132.418521 271.459685 
L 133.036093 275.869294 
L 133.653665 273.72877 
L 134.271237 275.076509 
L 134.888809 277.915541 
L 136.123953 279.573964 
L 136.741526 280.966699 
L 137.359098 280.068918 
L 137.97667 278.376212 
L 138.594242 280.298183 
L 139.211814 280.775998 
L 139.829386 278.425493 
L 140.446958 281.665207 
L 141.06453 281.888045 
L 141.682103 282.363714 
L 142.299675 285.783411 
L 142.917247 284.326401 
L 143.534819 285.288457 
L 144.152391 281.939467 
L 145.387535 285.384875 
L 146.005107 286.646908 
L 146.622679 285.487725 
L 147.240252 285.714844 
L 147.857824 284.416392 
L 148.475396 286.831177 
L 149.71054 288.326757 
L 150.328112 290.460854 
L 150.945684 290.165166 
L 151.563256 290.75654 
L 152.180829 290.760826 
L 152.798401 290.647267 
L 153.415973 288.77672 
L 154.033545 293.312742 
L 154.651117 291.594324 
L 155.268689 295.556116 
L 155.886261 295.684674 
L 156.503833 296.087496 
L 157.121405 295.875372 
L 157.738978 295.181148 
L 158.35655 297.475944 
L 158.974122 296.70887 
L 159.591694 299.037947 
L 160.209266 296.314618 
L 160.826838 296.438893 
L 161.44441 296.096068 
L 162.061982 299.402202 
L 162.679555 299.292926 
L 163.297127 299.565044 
L 163.914699 299.541475 
L 164.532271 301.214897 
L 165.149843 300.122137 
L 165.767415 299.340065 
L 166.384987 304.64102 
L 167.620131 301.101335 
L 168.855276 303.833236 
L 169.472848 302.359082 
L 170.09042 304.84886 
L 170.707992 302.179096 
L 171.325564 304.540316 
L 171.943136 303.310426 
L 172.560708 302.854036 
L 173.178281 304.525318 
L 173.795853 305.116692 
L 174.413425 305.315963 
L 175.030997 304.694588 
L 175.648569 305.650218 
L 176.266141 305.290249 
L 176.883713 305.66093 
L 177.501285 306.520139 
L 178.118857 306.556565 
L 178.73643 308.262128 
L 179.971574 306.869396 
L 180.589146 307.747889 
L 181.206718 308.322122 
L 181.82429 308.607098 
L 182.441862 309.087056 
L 183.059434 309.410599 
L 183.677007 310.351227 
L 184.294579 310.432649 
L 184.912151 310.121962 
L 185.529723 312.191779 
L 186.147295 311.668968 
L 186.764867 311.540408 
L 187.382439 311.647541 
L 188.000011 313.483807 
L 188.617583 311.589689 
L 189.235156 313.676647 
L 189.852728 313.633793 
L 190.4703 311.531837 
L 191.087872 314.878683 
L 191.705444 312.845292 
L 192.323016 313.320964 
L 192.940588 314.582995 
L 193.55816 313.693789 
L 194.175733 315.187226 
L 194.793305 315.767889 
L 195.410877 316.528536 
L 196.028449 313.897341 
L 196.646021 316.545677 
L 197.263593 317.372747 
L 197.881165 317.452025 
L 198.498737 317.025635 
L 199.116309 316.429973 
L 199.733882 318.386228 
L 200.351454 317.732715 
L 201.586598 317.293468 
L 202.20417 317.814136 
L 202.821742 319.106164 
L 203.439314 318.696914 
L 204.056886 319.403995 
L 204.674459 318.429081 
L 205.292031 319.041884 
L 206.527175 321.090274 
L 207.144747 320.989569 
L 207.762319 320.58889 
L 208.379891 320.910289 
L 208.997463 320.732448 
L 209.615035 321.958054 
L 210.85018 321.546661 
L 211.467752 322.551572 
L 212.085324 321.5938 
L 212.702896 321.651652 
L 213.320468 322.94368 
L 213.93804 322.575141 
L 214.555612 322.457295 
L 215.173185 323.192229 
L 215.790757 322.483007 
L 216.408329 323.348644 
L 217.025901 323.775034 
L 217.643473 324.034297 
L 218.261045 323.916451 
L 218.878617 324.591391 
L 219.496189 323.633619 
L 220.113761 324.295703 
L 221.348906 324.623531 
L 222.58405 325.150627 
L 223.201622 325.189195 
L 224.436766 324.910648 
L 225.054338 325.343467 
L 225.671911 325.037065 
L 226.289483 325.909131 
L 226.907055 325.253475 
L 227.524627 325.722719 
L 228.142199 325.594159 
L 228.759771 325.682008 
L 229.377343 325.984124 
L 229.994915 326.136253 
L 231.23006 326.059117 
L 231.847632 326.738342 
L 232.465204 326.307667 
L 233.082776 326.539075 
L 233.700348 326.078401 
L 234.31792 326.228388 
L 235.553064 326.817622 
L 236.170637 326.541218 
L 236.788209 326.785481 
L 237.405781 326.466224 
L 238.023353 327.145449 
L 238.640925 326.686919 
L 239.258497 327.081169 
L 239.876069 327.117595 
L 241.111213 327.618979 
L 241.728786 327.117595 
L 242.346358 327.389713 
L 242.96393 327.106881 
L 243.581502 327.524701 
L 244.816646 327.672545 
L 245.434218 327.809676 
L 246.05179 327.381143 
L 247.286935 327.591124 
L 247.904507 328.05394 
L 248.522079 327.723969 
L 249.757223 328.191071 
L 250.374795 327.831103 
L 250.992367 327.850387 
L 251.609939 327.711113 
L 252.227512 328.103221 
L 252.845084 327.841816 
L 253.462656 328.081795 
L 254.080228 327.991803 
L 254.6978 328.347485 
L 255.315372 328.403195 
L 256.550516 328.109649 
L 257.168089 328.351771 
L 260.873521 328.379625 
L 261.491093 328.306775 
L 262.108665 328.589607 
L 262.726238 328.596035 
L 263.34381 328.743879 
L 263.961382 328.497472 
L 265.196526 328.780304 
L 265.814098 328.913149 
L 267.666815 328.908864 
L 268.284387 328.694597 
L 271.372247 329.030996 
L 271.989819 329.022425 
L 272.607391 329.155271 
L 273.842536 329.039567 
L 274.460108 329.253833 
L 275.07768 329.084563 
L 275.695252 329.035281 
L 276.312824 329.228121 
L 276.930396 329.054565 
L 277.547968 329.105989 
L 278.165541 329.348111 
L 278.783113 329.127416 
L 280.635829 329.294544 
L 281.253401 329.069564 
L 282.488545 329.354539 
L 283.72369 328.992428 
L 284.341262 329.375965 
L 284.958834 329.442388 
L 285.576406 329.326684 
L 286.193978 329.478813 
L 287.429122 329.260261 
L 288.664267 329.566663 
L 289.899411 329.448816 
L 290.516983 329.40382 
L 291.752127 329.510953 
L 292.369699 329.513096 
L 292.987271 329.363109 
L 293.604843 329.577376 
L 294.222416 329.489527 
L 294.839988 329.594517 
L 295.45756 329.560235 
L 296.075132 329.639513 
L 296.692704 329.457387 
L 297.310276 329.478813 
L 297.927848 329.703793 
L 298.54542 329.583804 
L 299.162993 329.759503 
L 299.780565 329.75736 
L 300.398137 329.603088 
L 301.015709 329.594517 
L 301.633281 329.763788 
L 302.250853 329.611659 
L 303.485997 329.701651 
L 304.103569 329.770216 
L 304.721142 329.609516 
L 305.956286 329.650227 
L 306.573858 329.577376 
L 307.19143 329.783072 
L 308.426574 329.847352 
L 309.044146 329.650227 
L 309.661719 329.828068 
L 310.279291 329.862351 
L 310.896863 329.703793 
L 311.514435 329.830211 
L 312.749579 329.830211 
L 313.367151 329.975912 
L 313.984723 329.873064 
L 315.83744 329.990911 
L 316.455012 330.038049 
L 317.072584 329.935201 
L 317.690156 330.001624 
L 318.9253 329.973769 
L 320.160445 329.941629 
L 321.395589 329.894491 
L 323.865877 329.986625 
L 324.483449 329.948057 
L 326.336166 330.168752 
L 326.953738 330.059476 
L 327.57131 330.153753 
L 328.188882 330.100187 
L 328.806454 330.23946 
L 329.424026 330.089473 
L 331.894315 330.23946 
L 332.511887 330.095901 
L 333.129459 330.188036 
L 334.364603 330.140897 
L 334.982175 330.230889 
L 335.599747 330.138755 
L 338.070036 330.284456 
L 339.922752 330.140897 
L 340.540324 330.423729 
L 341.157897 330.218033 
L 341.775469 330.36802 
L 342.393041 330.164467 
L 343.010613 330.293027 
L 343.628185 330.218033 
L 345.480901 330.30374 
L 347.333618 330.235175 
L 349.186334 330.256601 
L 351.03905 330.355164 
L 353.509339 330.145183 
L 354.126911 330.4323 
L 355.362055 330.258744 
L 355.979627 330.333737 
L 356.597199 330.273743 
L 357.214772 330.419444 
L 357.832344 330.421587 
L 358.449916 330.297312 
L 359.067488 330.413016 
L 360.302632 330.374448 
L 361.537776 330.393732 
L 362.155349 330.421587 
L 363.390493 330.357307 
L 365.860781 330.398017 
L 366.478353 330.30374 
L 368.948642 330.449441 
L 369.566214 330.320881 
L 371.41893 330.425872 
L 372.036502 330.391589 
L 372.654075 330.477296 
L 373.889219 330.378733 
L 376.977079 330.440871 
L 378.212224 330.200892 
L 378.829796 330.447299 
L 379.447368 330.380876 
L 380.06494 330.56086 
L 384.387945 330.455869 
L 385.005517 330.563003 
L 386.858233 330.460155 
L 388.093377 330.578001 
L 389.328522 330.359449 
L 390.563666 330.52872 
L 391.181238 330.455869 
L 391.79881 330.584429 
L 393.651527 330.488009 
L 394.269099 330.682992 
L 395.504243 330.575859 
L 396.121815 330.513721 
L 396.739387 330.693705 
L 397.974531 330.434443 
L 399.827248 330.637996 
L 401.679964 330.522292 
L 402.915108 330.578001 
L 403.53268 330.479439 
L 405.385397 330.620855 
L 406.620541 330.518007 
L 412.17869 330.723703 
L 412.796262 330.605856 
L 413.413834 330.659423 
L 414.031406 330.539433 
L 415.266551 330.607999 
L 415.884123 330.329452 
L 416.501695 330.586572 
L 417.119267 330.500865 
L 417.736839 330.676564 
L 418.971983 330.575859 
L 420.207128 330.65728 
L 420.8247 330.618712 
L 421.442272 330.706561 
L 423.294988 330.655137 
L 423.91256 330.740844 
L 427.617993 330.633711 
L 428.853137 330.582287 
L 429.470709 330.732273 
L 430.088281 330.618712 
L 432.55857 330.646567 
L 433.176142 330.522292 
L 434.411286 330.700133 
L 435.028858 330.620855 
L 436.264003 330.667993 
L 437.499147 330.575859 
L 438.116719 330.749415 
L 439.351863 330.642281 
L 442.439724 330.736559 
L 443.674868 330.672279 
L 444.910012 330.708704 
L 445.527584 330.764413 
L 446.145157 330.637996 
L 447.380301 330.655137 
L 447.997873 330.622997 
L 449.233017 330.757985 
L 451.085733 330.62514 
L 454.791166 330.706561 
L 455.408738 330.745129 
L 456.02631 330.56086 
L 456.643883 330.597285 
L 457.261455 330.751557 
L 457.879027 330.732273 
L 458.496599 330.832979 
L 460.349315 330.672279 
L 460.966887 330.858691 
L 464.054748 330.693705 
L 464.67232 330.742987 
L 465.289892 330.667993 
L 465.907464 330.762271 
L 467.142609 330.702276 
L 469.612897 330.740844 
L 473.31833 330.749415 
L 473.935902 330.927256 
L 474.553474 330.736559 
L 476.40619 330.777269 
L 477.023762 330.740844 
L 477.641335 330.820123 
L 478.258907 330.640139 
L 479.494051 330.646567 
L 480.111623 330.813695 
L 480.729195 330.843692 
L 481.346767 330.740844 
L 481.964339 330.845835 
L 485.0522 330.768699 
L 487.522488 330.867261 
L 488.757633 330.7537 
L 489.375205 330.612284 
L 489.992777 330.777269 
L 492.463065 330.790125 
L 493.080637 330.642281 
L 493.69821 330.616569 
L 494.315782 330.820123 
L 494.933354 330.708704 
L 495.550926 330.766556 
L 496.168498 330.595143 
L 496.78607 330.856548 
L 497.403642 330.747272 
L 498.021214 330.897259 
L 498.638787 330.792268 
L 500.491503 330.875832 
L 501.726647 330.740844 
L 502.344219 330.903687 
L 503.579363 330.807267 
L 504.814508 330.88226 
L 505.43208 330.811552 
L 507.284796 330.856548 
L 507.902368 330.719417 
L 508.51994 330.862976 
L 509.755085 330.937969 
L 510.372657 330.760128 
L 510.990229 330.880117 
L 512.842945 330.820123 
L 513.460517 330.922971 
L 514.078089 330.787983 
L 514.695662 330.871547 
L 515.930806 330.81798 
L 517.783522 330.841549 
L 528.89982 330.813695 
L 530.134965 330.877975 
L 530.752537 330.97868 
L 533.222825 330.81798 
L 533.840397 330.9144 
L 539.398546 330.807267 
L 541.251263 330.858691 
L 541.868835 330.779412 
L 542.486407 330.886545 
L 543.103979 330.873689 
L 543.721551 330.97868 
L 544.956695 330.961539 
L 546.809412 330.980823 
L 556.072993 330.78584 
L 557.308138 330.974395 
L 557.92571 330.989393 
L 559.160854 330.860833 
L 559.778426 330.952968 
L 561.631143 330.931541 
L 562.248715 330.993679 
L 563.483859 330.920828 
L 564.719003 330.9144 
L 565.336575 330.854405 
L 566.571719 331.006535 
L 569.65958 330.85012 
L 572.129869 330.976537 
L 572.747441 330.601571 
L 573.365013 330.916543 
L 575.835301 330.963681 
L 578.30559 330.869404 
L 580.158306 330.961539 
L 582.011022 330.892973 
L 582.628595 331.030104 
L 583.246167 330.933684 
L 585.098883 330.967967 
L 587.569171 330.950825 
L 588.186744 331.019391 
L 588.804316 330.895116 
L 591.892176 330.972252 
L 593.127321 330.961539 
L 594.362465 330.88226 
L 596.832753 330.948683 
L 600.538186 330.897259 
L 601.155758 330.995821 
L 601.77333 330.832979 
L 602.390902 331.012963 
L 606.713907 330.937969 
L 607.331479 331.030104 
L 608.566623 330.822265 
L 609.184196 331.030104 
L 609.801768 331.079385 
L 610.41934 330.94654 
L 612.272056 331.021533 
L 612.889628 330.927256 
L 613.5072 331.057959 
L 614.742345 331.032247 
L 615.977489 331.083671 
L 616.595061 330.985108 
L 617.830205 330.959396 
L 618.447777 330.935827 
L 619.065349 331.023676 
L 622.15321 330.961539 
L 624.005926 330.997964 
L 624.623498 331.055816 
L 625.241071 330.991536 
L 626.476215 331.01082 
L 636.974941 330.970109 
L 637.592513 331.096527 
L 638.827657 330.933684 
L 640.062801 331.062244 
L 642.53309 330.950825 
L 643.768234 331.012963 
L 646.856095 330.976537 
L 647.473667 331.081528 
L 649.326383 331.019391 
L 649.943955 331.060101 
L 650.561527 330.970109 
L 651.796672 331.015105 
L 652.414244 331.000107 
L 653.031816 331.115811 
L 654.26696 331.064387 
L 672.794124 331.030104 
L 673.411696 330.940112 
L 674.64684 331.008677 
L 676.499556 330.993679 
L 678.352273 330.989393 
L 678.352273 330.989393 
" clip-path="url(#pc9018112a0)" style="fill: none; stroke: #d62728; stroke-width: 1.5; stroke-linecap: square"/>
   </g>
   <g id="patch_3">
    <path d="M 30.55 332.2 
L 30.55 10.8 
" style="fill: none; stroke: #000000; stroke-width: 0.8; stroke-linejoin: miter; stroke-linecap: square"/>
   </g>
   <g id="patch_4">
    <path d="M 709.2 332.2 
L 709.2 10.8 
" style="fill: none; stroke: #000000; stroke-width: 0.8; stroke-linejoin: miter; stroke-linecap: square"/>
   </g>
   <g id="patch_5">
    <path d="M 30.55 332.2 
L 709.2 332.2 
" style="fill: none; stroke: #000000; stroke-width: 0.8; stroke-linejoin: miter; stroke-linecap: square"/>
   </g>
   <g id="patch_6">
    <path d="M 30.55 10.8 
L 709.2 10.8 
" style="fill: none; stroke: #000000; stroke-width: 0.8; stroke-linejoin: miter; stroke-linecap: square"/>
   </g>
   <g id="legend_1">
    <g id="patch_7">
     <path d="M 608.695312 77.5125 
L 702.2 77.5125 
Q 704.2 77.5125 704.2 75.5125 
L 704.2 17.8 
Q 704.2 15.8 702.2 15.8 
L 608.695312 15.8 
Q 606.695312 15.8 606.695312 17.8 
L 606.695312 75.5125 
Q 606.695312 77.5125 608.695312 77.5125 
z
" style="fill: #ffffff; opacity: 0.8; stroke: #cccccc; stroke-linejoin: miter"/>
    </g>
    <g id="line2d_19">
     <path d="M 610.695312 23.898438 
L 620.695312 23.898438 
L 630.695312 23.898438 
" style="fill: none; stroke: #1f77b4; stroke-width: 1.5; stroke-linecap: square"/>
    </g>
    <g id="text_15">
     <!-- Mamba 6M -->
     <g transform="translate(638.695312 27.398438)scale(0.1 -0.1)">
      <defs>
       <path id="DejaVuSans-4d" d="M 628 4666 
L 1569 4666 
L 2759 1491 
L 3956 4666 
L 4897 4666 
L 4897 0 
L 4281 0 
L 4281 4097 
L 3078 897 
L 2444 897 
L 1241 4097 
L 1241 0 
L 628 0 
L 628 4666 
z
" transform="scale(0.015625)"/>
       <path id="DejaVuSans-61" d="M 2194 1759 
Q 1497 1759 1228 1600 
Q 959 1441 959 1056 
Q 959 750 1161 570 
Q 1363 391 1709 391 
Q 2188 391 2477 730 
Q 2766 1069 2766 1631 
L 2766 1759 
L 2194 1759 
z
M 3341 1997 
L 3341 0 
L 2766 0 
L 2766 531 
Q 2569 213 2275 61 
Q 1981 -91 1556 -91 
Q 1019 -91 701 211 
Q 384 513 384 1019 
Q 384 1609 779 1909 
Q 1175 2209 1959 2209 
L 2766 2209 
L 2766 2266 
Q 2766 2663 2505 2880 
Q 2244 3097 1772 3097 
Q 1472 3097 1187 3025 
Q 903 2953 641 2809 
L 641 3341 
Q 956 3463 1253 3523 
Q 1550 3584 1831 3584 
Q 2591 3584 2966 3190 
Q 3341 2797 3341 1997 
z
" transform="scale(0.015625)"/>
       <path id="DejaVuSans-6d" d="M 3328 2828 
Q 3544 3216 3844 3400 
Q 4144 3584 4550 3584 
Q 5097 3584 5394 3201 
Q 5691 2819 5691 2113 
L 5691 0 
L 5113 0 
L 5113 2094 
Q 5113 2597 4934 2840 
Q 4756 3084 4391 3084 
Q 3944 3084 3684 2787 
Q 3425 2491 3425 1978 
L 3425 0 
L 2847 0 
L 2847 2094 
Q 2847 2600 2669 2842 
Q 2491 3084 2119 3084 
Q 1678 3084 1418 2786 
Q 1159 2488 1159 1978 
L 1159 0 
L 581 0 
L 581 3500 
L 1159 3500 
L 1159 2956 
Q 1356 3278 1631 3431 
Q 1906 3584 2284 3584 
Q 2666 3584 2933 3390 
Q 3200 3197 3328 2828 
z
" transform="scale(0.015625)"/>
       <path id="DejaVuSans-62" d="M 3116 1747 
Q 3116 2381 2855 2742 
Q 2594 3103 2138 3103 
Q 1681 3103 1420 2742 
Q 1159 2381 1159 1747 
Q 1159 1113 1420 752 
Q 1681 391 2138 391 
Q 2594 391 2855 752 
Q 3116 1113 3116 1747 
z
M 1159 2969 
Q 1341 3281 1617 3432 
Q 1894 3584 2278 3584 
Q 2916 3584 3314 3078 
Q 3713 2572 3713 1747 
Q 3713 922 3314 415 
Q 2916 -91 2278 -91 
Q 1894 -91 1617 61 
Q 1341 213 1159 525 
L 1159 0 
L 581 0 
L 581 4863 
L 1159 4863 
L 1159 2969 
z
" transform="scale(0.015625)"/>
       <path id="DejaVuSans-20" transform="scale(0.015625)"/>
      </defs>
      <use xlink:href="#DejaVuSans-4d"/>
      <use xlink:href="#DejaVuSans-61" x="86.279297"/>
      <use xlink:href="#DejaVuSans-6d" x="147.558594"/>
      <use xlink:href="#DejaVuSans-62" x="244.970703"/>
      <use xlink:href="#DejaVuSans-61" x="308.447266"/>
      <use xlink:href="#DejaVuSans-20" x="369.726562"/>
      <use xlink:href="#DejaVuSans-36" x="401.513672"/>
      <use xlink:href="#DejaVuSans-4d" x="465.136719"/>
     </g>
    </g>
    <g id="line2d_20">
     <path d="M 610.695312 38.576563 
L 620.695312 38.576563 
L 630.695312 38.576563 
" style="fill: none; stroke: #ff7f0e; stroke-width: 1.5; stroke-linecap: square"/>
    </g>
    <g id="text_16">
     <!-- GPT-2 6M -->
     <g transform="translate(638.695312 42.076563)scale(0.1 -0.1)">
      <defs>
       <path id="DejaVuSans-47" d="M 3809 666 
L 3809 1919 
L 2778 1919 
L 2778 2438 
L 4434 2438 
L 4434 434 
Q 4069 175 3628 42 
Q 3188 -91 2688 -91 
Q 1594 -91 976 548 
Q 359 1188 359 2328 
Q 359 3472 976 4111 
Q 1594 4750 2688 4750 
Q 3144 4750 3555 4637 
Q 3966 4525 4313 4306 
L 4313 3634 
Q 3963 3931 3569 4081 
Q 3175 4231 2741 4231 
Q 1884 4231 1454 3753 
Q 1025 3275 1025 2328 
Q 1025 1384 1454 906 
Q 1884 428 2741 428 
Q 3075 428 3337 486 
Q 3600 544 3809 666 
z
" transform="scale(0.015625)"/>
       <path id="DejaVuSans-50" d="M 1259 4147 
L 1259 2394 
L 2053 2394 
Q 2494 2394 2734 2622 
Q 2975 2850 2975 3272 
Q 2975 3691 2734 3919 
Q 2494 4147 2053 4147 
L 1259 4147 
z
M 628 4666 
L 2053 4666 
Q 2838 4666 3239 4311 
Q 3641 3956 3641 3272 
Q 3641 2581 3239 2228 
Q 2838 1875 2053 1875 
L 1259 1875 
L 1259 0 
L 628 0 
L 628 4666 
z
" transform="scale(0.015625)"/>
       <path id="DejaVuSans-54" d="M -19 4666 
L 3928 4666 
L 3928 4134 
L 2272 4134 
L 2272 0 
L 1638 0 
L 1638 4134 
L -19 4134 
L -19 4666 
z
" transform="scale(0.015625)"/>
       <path id="DejaVuSans-2d" d="M 313 2009 
L 1997 2009 
L 1997 1497 
L 313 1497 
L 313 2009 
z
" transform="scale(0.015625)"/>
      </defs>
      <use xlink:href="#DejaVuSans-47"/>
      <use xlink:href="#DejaVuSans-50" x="77.490234"/>
      <use xlink:href="#DejaVuSans-54" x="137.792969"/>
      <use xlink:href="#DejaVuSans-2d" x="189.751953"/>
      <use xlink:href="#DejaVuSans-32" x="225.835938"/>
      <use xlink:href="#DejaVuSans-20" x="289.458984"/>
      <use xlink:href="#DejaVuSans-36" x="321.246094"/>
      <use xlink:href="#DejaVuSans-4d" x="384.869141"/>
     </g>
    </g>
    <g id="line2d_21">
     <path d="M 610.695312 53.254688 
L 620.695312 53.254688 
L 630.695312 53.254688 
" style="fill: none; stroke: #2ca02c; stroke-width: 1.5; stroke-linecap: square"/>
    </g>
    <g id="text_17">
     <!-- Mamba 60M -->
     <g transform="translate(638.695312 56.754688)scale(0.1 -0.1)">
      <use xlink:href="#DejaVuSans-4d"/>
      <use xlink:href="#DejaVuSans-61" x="86.279297"/>
      <use xlink:href="#DejaVuSans-6d" x="147.558594"/>
      <use xlink:href="#DejaVuSans-62" x="244.970703"/>
      <use xlink:href="#DejaVuSans-61" x="308.447266"/>
      <use xlink:href="#DejaVuSans-20" x="369.726562"/>
      <use xlink:href="#DejaVuSans-36" x="401.513672"/>
      <use xlink:href="#DejaVuSans-30" x="465.136719"/>
      <use xlink:href="#DejaVuSans-4d" x="528.759766"/>
     </g>
    </g>
    <g id="line2d_22">
     <path d="M 610.695312 67.932813 
L 620.695312 67.932813 
L 630.695312 67.932813 
" style="fill: none; stroke: #d62728; stroke-width: 1.5; stroke-linecap: square"/>
    </g>
    <g id="text_18">
     <!-- GPT-2 60M -->
     <g transform="translate(638.695312 71.432813)scale(0.1 -0.1)">
      <use xlink:href="#DejaVuSans-47"/>
      <use xlink:href="#DejaVuSans-50" x="77.490234"/>
      <use xlink:href="#DejaVuSans-54" x="137.792969"/>
      <use xlink:href="#DejaVuSans-2d" x="189.751953"/>
      <use xlink:href="#DejaVuSans-32" x="225.835938"/>
      <use xlink:href="#DejaVuSans-20" x="289.458984"/>
      <use xlink:href="#DejaVuSans-36" x="321.246094"/>
      <use xlink:href="#DejaVuSans-30" x="384.869141"/>
      <use xlink:href="#DejaVuSans-4d" x="448.492188"/>
     </g>
    </g>
   </g>
  </g>
 </g>
 <defs>
  <clipPath id="pc9018112a0">
   <rect x="30.55" y="10.8" width="678.65" height="321.4"/>
  </clipPath>
 </defs>
</svg>
